<svg width="400" height="747" id="Layer_1" data-name="Layer 1" xmlns="http://www.w3.org/2000/svg" xmlns:xlink="http://www.w3.org/1999/xlink" viewBox="0 0 595.15 975.4"><defs><style>.cls-1,.cls-73,.cls-74,.cls-75{fill:none;}.cls-2{clip-path:url(#clip-path);}.cls-3{fill:url(#linear-gradient);}.cls-4{fill:#fff;}.cls-5{clip-path:url(#clip-path-2);}.cls-6{fill:url(#linear-gradient-2);}.cls-7{clip-path:url(#clip-path-3);}.cls-8{fill:url(#linear-gradient-3);}.cls-9{clip-path:url(#clip-path-4);}.cls-10{fill:url(#linear-gradient-4);}.cls-11{clip-path:url(#clip-path-5);}.cls-12{fill:url(#linear-gradient-5);}.cls-13{clip-path:url(#clip-path-6);}.cls-14{fill:url(#linear-gradient-6);}.cls-15{clip-path:url(#clip-path-7);}.cls-16{fill:url(#linear-gradient-7);}.cls-17{clip-path:url(#clip-path-8);}.cls-18{fill:url(#linear-gradient-8);}.cls-19{clip-path:url(#clip-path-9);}.cls-20{fill:url(#linear-gradient-9);}.cls-21{clip-path:url(#clip-path-10);}.cls-22{fill:url(#linear-gradient-10);}.cls-23{clip-path:url(#clip-path-11);}.cls-24{fill:url(#linear-gradient-11);}.cls-25{clip-path:url(#clip-path-12);}.cls-26{fill:url(#linear-gradient-12);}.cls-27{clip-path:url(#clip-path-13);}.cls-28{fill:url(#linear-gradient-13);}.cls-29{clip-path:url(#clip-path-14);}.cls-30{fill:url(#linear-gradient-14);}.cls-31{clip-path:url(#clip-path-15);}.cls-32{fill:url(#linear-gradient-15);}.cls-33{clip-path:url(#clip-path-16);}.cls-34{fill:url(#linear-gradient-16);}.cls-35{clip-path:url(#clip-path-17);}.cls-36{fill:url(#linear-gradient-17);}.cls-37{clip-path:url(#clip-path-18);}.cls-38{fill:url(#linear-gradient-18);}.cls-39{clip-path:url(#clip-path-19);}.cls-40{fill:url(#linear-gradient-19);}.cls-41{clip-path:url(#clip-path-20);}.cls-42{fill:url(#linear-gradient-20);}.cls-43{clip-path:url(#clip-path-21);}.cls-44{fill:url(#linear-gradient-21);}.cls-45{clip-path:url(#clip-path-22);}.cls-46{fill:url(#linear-gradient-22);}.cls-47{clip-path:url(#clip-path-23);}.cls-48{fill:url(#linear-gradient-23);}.cls-49{clip-path:url(#clip-path-24);}.cls-50{fill:url(#linear-gradient-24);}.cls-51{clip-path:url(#clip-path-25);}.cls-52{fill:url(#linear-gradient-25);}.cls-53{clip-path:url(#clip-path-26);}.cls-54{fill:url(#linear-gradient-26);}.cls-55{clip-path:url(#clip-path-27);}.cls-56{fill:url(#linear-gradient-27);}.cls-57{clip-path:url(#clip-path-28);}.cls-58{fill:url(#linear-gradient-28);}.cls-59{clip-path:url(#clip-path-29);}.cls-60{fill:url(#linear-gradient-29);}.cls-61{clip-path:url(#clip-path-30);}.cls-62{fill:url(#linear-gradient-30);}.cls-63{clip-path:url(#clip-path-31);}.cls-64{fill:url(#linear-gradient-31);}.cls-65{clip-path:url(#clip-path-32);}.cls-66{fill:url(#linear-gradient-32);}.cls-67{clip-path:url(#clip-path-33);}.cls-68{fill:url(#linear-gradient-33);}.cls-69{clip-path:url(#clip-path-34);}.cls-70{fill:url(#linear-gradient-34);}.cls-71{clip-path:url(#clip-path-35);}.cls-72{fill:url(#linear-gradient-35);}.cls-73,.cls-74,.cls-75{stroke:#dadada;stroke-miterlimit:10;stroke-width:3px;}.cls-74{stroke-dasharray:12.3 12.3;}.cls-75{stroke-dasharray:12;}</style><clipPath id="clip-path"><path class="cls-1" d="M292.58,29.65l-36.7,21.19a10,10,0,0,0-5,8.66v42.38a10,10,0,0,0,5,8.65l36.7,21.19a10,10,0,0,0,10,0l36.7-21.19a10,10,0,0,0,5-8.65V59.5a10,10,0,0,0-5-8.66l-36.7-21.19A10,10,0,0,0,292.58,29.65Z"/></clipPath><linearGradient id="linear-gradient" x1="244" y1="26.55" x2="351.45" y2="134" gradientUnits="userSpaceOnUse"><stop offset="0" stop-color="#161412" stop-opacity="0"/><stop offset="0" stop-color="#ff0bac"/><stop offset="0.65" stop-color="#7410cc"/><stop offset="1" stop-color="#2f12dc"/></linearGradient><clipPath id="clip-path-2"><path class="cls-1" d="M177.05,106.45l-36.7,21.19a10,10,0,0,0-5,8.66v42.38a10,10,0,0,0,5,8.65l36.7,21.19a10,10,0,0,0,10,0l36.7-21.19a10,10,0,0,0,5-8.65V136.3a10,10,0,0,0-5-8.66L187,106.45A10,10,0,0,0,177.05,106.45Z"/></clipPath><linearGradient id="linear-gradient-2" x1="128.47" y1="103.35" x2="235.92" y2="210.8" xlink:href="#linear-gradient"/><clipPath id="clip-path-3"><path class="cls-1" d="M48,188.77,11.31,210a10,10,0,0,0-5,8.66V261a10,10,0,0,0,5,8.65L48,290.84a10,10,0,0,0,10,0l36.7-21.19a10,10,0,0,0,5-8.65V218.62a10,10,0,0,0-5-8.66L58,188.77A10,10,0,0,0,48,188.77Z"/></clipPath><linearGradient id="linear-gradient-3" x1="-0.57" y1="185.67" x2="106.89" y2="293.12" xlink:href="#linear-gradient"/><clipPath id="clip-path-4"><path class="cls-1" d="M419.79,102.74l-36.7,21.19a10,10,0,0,0-5,8.65V175a10,10,0,0,0,5,8.66l36.7,21.19a10,10,0,0,0,10,0l36.71-21.19a10,10,0,0,0,5-8.66V132.58a10,10,0,0,0-5-8.65l-36.71-21.19A10,10,0,0,0,419.79,102.74Z"/></clipPath><linearGradient id="linear-gradient-4" x1="371.21" y1="99.64" x2="478.66" y2="207.09" xlink:href="#linear-gradient"/><clipPath id="clip-path-5"><path class="cls-1" d="M540.75,181.67,504,202.86a10,10,0,0,0-5,8.65V253.9a10,10,0,0,0,5,8.65l36.71,21.19a10,10,0,0,0,10,0l36.7-21.19a10,10,0,0,0,5-8.65V211.51a10,10,0,0,0-5-8.65l-36.7-21.19A10,10,0,0,0,540.75,181.67Z"/></clipPath><linearGradient id="linear-gradient-5" x1="492.17" y1="178.57" x2="599.62" y2="286.02" xlink:href="#linear-gradient"/><clipPath id="clip-path-6"><path class="cls-1" d="M298.57,176.25l-36.7,21.19a10,10,0,0,0-5,8.65v42.39a10,10,0,0,0,5,8.65l36.7,21.19a10,10,0,0,0,10,0l36.7-21.19a10,10,0,0,0,5-8.65V206.09a10,10,0,0,0-5-8.65l-36.7-21.19A10,10,0,0,0,298.57,176.25Z"/></clipPath><linearGradient id="linear-gradient-6" x1="249.99" y1="173.15" x2="357.44" y2="280.6" xlink:href="#linear-gradient"/><clipPath id="clip-path-7"><path class="cls-1" d="M425.85,249.74l-36.7,21.19a10,10,0,0,0-5,8.65V322a10,10,0,0,0,5,8.66l36.7,21.19a10,10,0,0,0,10,0l36.71-21.19a10,10,0,0,0,5-8.66V279.58a10,10,0,0,0-5-8.65l-36.71-21.19A10,10,0,0,0,425.85,249.74Z"/></clipPath><linearGradient id="linear-gradient-7" x1="377.27" y1="246.64" x2="484.72" y2="354.09" xlink:href="#linear-gradient"/><clipPath id="clip-path-8"><path class="cls-1" d="M163,254.54l-36.7,21.19a10,10,0,0,0-5,8.66v42.38a10,10,0,0,0,5,8.65L163,356.61a10,10,0,0,0,10,0l36.7-21.19a10,10,0,0,0,5-8.65V284.39a10,10,0,0,0-5-8.66L173,254.54A10,10,0,0,0,163,254.54Z"/></clipPath><linearGradient id="linear-gradient-8" x1="114.38" y1="251.44" x2="221.83" y2="358.89" xlink:href="#linear-gradient"/><clipPath id="clip-path-9"><path class="cls-1" d="M298,330.84,261.28,352a10,10,0,0,0-5,8.65v42.38a10,10,0,0,0,5,8.65L298,432.91a10,10,0,0,0,10,0l36.71-21.19a10,10,0,0,0,5-8.65V360.69a10,10,0,0,0-5-8.65L308,330.84A10,10,0,0,0,298,330.84Z"/></clipPath><linearGradient id="linear-gradient-9" x1="249.4" y1="327.74" x2="356.85" y2="435.2" xlink:href="#linear-gradient"/><clipPath id="clip-path-10"><path class="cls-1" d="M48,332.52l-36.7,21.19a10,10,0,0,0-5,8.66v42.38a10,10,0,0,0,5,8.65L48,434.59a10,10,0,0,0,10,0L94.69,413.4a10,10,0,0,0,5-8.65V362.37a10,10,0,0,0-5-8.66L58,332.52A10,10,0,0,0,48,332.52Z"/></clipPath><linearGradient id="linear-gradient-10" x1="-0.59" y1="329.42" x2="106.86" y2="436.87" xlink:href="#linear-gradient"/><clipPath id="clip-path-11"><path class="cls-1" d="M180.9,411l-36.71,21.19a10,10,0,0,0-5,8.65v42.39a10,10,0,0,0,5,8.65L180.9,513a10,10,0,0,0,10,0l36.7-21.19a10,10,0,0,0,5-8.65V440.79a10,10,0,0,0-5-8.65L190.89,411A10,10,0,0,0,180.9,411Z"/></clipPath><linearGradient id="linear-gradient-11" x1="132.32" y1="407.85" x2="239.77" y2="515.3" xlink:href="#linear-gradient"/><clipPath id="clip-path-12"><path class="cls-1" d="M47.16,477.62,10.45,498.81a10,10,0,0,0-5,8.65v42.38a10,10,0,0,0,5,8.65l36.71,21.19a10,10,0,0,0,10,0l36.7-21.19a10,10,0,0,0,5-8.65V507.46a10,10,0,0,0-5-8.65l-36.7-21.19A10,10,0,0,0,47.16,477.62Z"/></clipPath><linearGradient id="linear-gradient-12" x1="-1.42" y1="474.52" x2="106.03" y2="581.97" xlink:href="#linear-gradient"/><clipPath id="clip-path-13"><path class="cls-1" d="M540.48,323.89l-36.71,21.19a10,10,0,0,0-5,8.65v42.38a10,10,0,0,0,5,8.66L540.48,426a10,10,0,0,0,10,0l36.7-21.19a10,10,0,0,0,5-8.66V353.73a10,10,0,0,0-5-8.65l-36.7-21.19A10,10,0,0,0,540.48,323.89Z"/></clipPath><linearGradient id="linear-gradient-13" x1="491.89" y1="320.79" x2="599.34" y2="428.24" xlink:href="#linear-gradient"/><clipPath id="clip-path-14"><path class="cls-1" d="M411.44,406.21l-36.7,21.19a10,10,0,0,0-5,8.65v42.39a10,10,0,0,0,5,8.65l36.7,21.19a10,10,0,0,0,10,0l36.71-21.19a10,10,0,0,0,5-8.65V436.05a10,10,0,0,0-5-8.65l-36.71-21.19A10,10,0,0,0,411.44,406.21Z"/></clipPath><linearGradient id="linear-gradient-14" x1="362.86" y1="403.11" x2="470.31" y2="510.56" xlink:href="#linear-gradient"/><clipPath id="clip-path-15"><path class="cls-1" d="M541.39,472l-36.7,21.19a10,10,0,0,0-5,8.65V544.2a10,10,0,0,0,5,8.66l36.7,21.19a10,10,0,0,0,10,0l36.71-21.19a10,10,0,0,0,5-8.66V501.82a10,10,0,0,0-5-8.65L551.38,472A10,10,0,0,0,541.39,472Z"/></clipPath><linearGradient id="linear-gradient-15" x1="492.81" y1="468.88" x2="600.26" y2="576.33" xlink:href="#linear-gradient"/><clipPath id="clip-path-16"><path class="cls-1" d="M297.66,465.45,261,486.64a10,10,0,0,0-5,8.65v42.38a10,10,0,0,0,5,8.66l36.7,21.19a10,10,0,0,0,10,0l36.71-21.19a10,10,0,0,0,5-8.66V495.29a10,10,0,0,0-5-8.65l-36.71-21.19A10,10,0,0,0,297.66,465.45Z"/></clipPath><linearGradient id="linear-gradient-16" x1="249.08" y1="462.35" x2="356.53" y2="569.8" xlink:href="#linear-gradient"/><clipPath id="clip-path-17"><path class="cls-1" d="M182.13,542.25l-36.7,21.19a10,10,0,0,0-5,8.65v42.38a10,10,0,0,0,5,8.66l36.7,21.19a10,10,0,0,0,10,0l36.71-21.19a10,10,0,0,0,5-8.66V572.09a10,10,0,0,0-5-8.65l-36.71-21.19A10,10,0,0,0,182.13,542.25Z"/></clipPath><linearGradient id="linear-gradient-17" x1="133.55" y1="539.15" x2="241" y2="646.6" xlink:href="#linear-gradient"/><clipPath id="clip-path-18"><path class="cls-1" d="M48.08,617.24,11.37,638.43a10,10,0,0,0-5,8.65v42.39a10,10,0,0,0,5,8.65l36.71,21.19a10,10,0,0,0,10,0l36.7-21.19a10,10,0,0,0,5-8.65V647.08a10,10,0,0,0-5-8.65l-36.7-21.19A10,10,0,0,0,48.08,617.24Z"/></clipPath><linearGradient id="linear-gradient-18" x1="-0.5" y1="614.14" x2="106.95" y2="721.59" xlink:href="#linear-gradient"/><clipPath id="clip-path-19"><path class="cls-1" d="M424.87,538.53l-36.7,21.2a10,10,0,0,0-5,8.65v42.38a10,10,0,0,0,5,8.65l36.7,21.19a10,10,0,0,0,10,0l36.7-21.19a10,10,0,0,0,5-8.65V568.38a10,10,0,0,0-5-8.65l-36.7-21.2A10,10,0,0,0,424.87,538.53Z"/></clipPath><linearGradient id="linear-gradient-19" x1="376.29" y1="535.43" x2="483.74" y2="642.89" xlink:href="#linear-gradient"/><clipPath id="clip-path-20"><path class="cls-1" d="M540.83,607.47l-36.7,21.19a10,10,0,0,0-5,8.65v42.38a10,10,0,0,0,5,8.66l36.7,21.19a10,10,0,0,0,10,0l36.71-21.19a10,10,0,0,0,5-8.66V637.31a10,10,0,0,0-5-8.65l-36.71-21.19A10,10,0,0,0,540.83,607.47Z"/></clipPath><linearGradient id="linear-gradient-20" x1="492.25" y1="604.37" x2="599.7" y2="711.82" xlink:href="#linear-gradient"/><clipPath id="clip-path-21"><path class="cls-1" d="M303.65,612.05,267,633.24a10,10,0,0,0-5,8.65v42.38a10,10,0,0,0,5,8.65l36.7,21.2a10,10,0,0,0,10,0l36.71-21.2a10,10,0,0,0,5-8.65V641.89a10,10,0,0,0-5-8.65l-36.71-21.19A10,10,0,0,0,303.65,612.05Z"/></clipPath><linearGradient id="linear-gradient-21" x1="255.07" y1="608.95" x2="362.52" y2="716.4" xlink:href="#linear-gradient"/><clipPath id="clip-path-22"><path class="cls-1" d="M414.94,683.53l-36.71,21.19a10,10,0,0,0-5,8.66v42.38a10,10,0,0,0,5,8.65l36.71,21.19a10,10,0,0,0,10,0l36.7-21.19a10,10,0,0,0,5-8.65V713.38a10,10,0,0,0-5-8.66l-36.7-21.19A10,10,0,0,0,414.94,683.53Z"/></clipPath><linearGradient id="linear-gradient-22" x1="366.35" y1="680.43" x2="473.8" y2="787.88" xlink:href="#linear-gradient"/><clipPath id="clip-path-23"><path class="cls-1" d="M189.05,688.34l-36.71,21.19a10,10,0,0,0-5,8.65v42.38a10,10,0,0,0,5,8.66l36.71,21.19a10,10,0,0,0,10,0l36.7-21.19a10,10,0,0,0,5-8.66V718.18a10,10,0,0,0-5-8.65L199,688.34A10,10,0,0,0,189.05,688.34Z"/></clipPath><linearGradient id="linear-gradient-23" x1="140.46" y1="685.24" x2="247.92" y2="792.69" xlink:href="#linear-gradient"/><clipPath id="clip-path-24"><path class="cls-1" d="M303.07,751.64l-36.71,21.19a10,10,0,0,0-5,8.65v42.39a10,10,0,0,0,5,8.65l36.71,21.19a10,10,0,0,0,10,0l36.7-21.19a10,10,0,0,0,5-8.65V781.48a10,10,0,0,0-5-8.65l-36.7-21.19A10,10,0,0,0,303.07,751.64Z"/></clipPath><linearGradient id="linear-gradient-24" x1="254.48" y1="748.54" x2="361.93" y2="855.99" xlink:href="#linear-gradient"/><clipPath id="clip-path-25"><path class="cls-1" d="M420.65,821.69,384,842.88a10,10,0,0,0-5,8.66v42.38a10,10,0,0,0,5,8.65l36.7,21.19a10,10,0,0,0,10,0l36.7-21.19a10,10,0,0,0,5-8.65V851.54a10,10,0,0,0-5-8.66l-36.7-21.19A10,10,0,0,0,420.65,821.69Z"/></clipPath><linearGradient id="linear-gradient-25" x1="372.07" y1="818.59" x2="479.52" y2="926.04" xlink:href="#linear-gradient"/><clipPath id="clip-path-26"><path class="cls-1" d="M540.19,748.56l-36.7,21.19a10,10,0,0,0-5,8.65v42.39a10,10,0,0,0,5,8.65l36.7,21.19a10,10,0,0,0,10,0l36.71-21.19a10,10,0,0,0,5-8.65V778.4a10,10,0,0,0-5-8.65l-36.71-21.19A10,10,0,0,0,540.19,748.56Z"/></clipPath><linearGradient id="linear-gradient-26" x1="491.61" y1="745.46" x2="599.06" y2="852.91" xlink:href="#linear-gradient"/><clipPath id="clip-path-27"><path class="cls-1" d="M540.68,893.3,504,914.49a10,10,0,0,0-5,8.66v42.38a10,10,0,0,0,5,8.65l36.7,21.19a10,10,0,0,0,10,0l36.7-21.19a10,10,0,0,0,5-8.65V923.15a10,10,0,0,0-5-8.66l-36.7-21.19A10,10,0,0,0,540.68,893.3Z"/></clipPath><linearGradient id="linear-gradient-27" x1="492.1" y1="890.2" x2="599.55" y2="997.65" xlink:href="#linear-gradient"/><clipPath id="clip-path-28"><path class="cls-1" d="M315.61,897.58l-36.7,21.19a10,10,0,0,0-5,8.65V969.8a10,10,0,0,0,5,8.66l36.7,21.19a10,10,0,0,0,10,0l36.7-21.19a10,10,0,0,0,5-8.66V927.42a10,10,0,0,0-5-8.65l-36.7-21.19A10,10,0,0,0,315.61,897.58Z"/></clipPath><linearGradient id="linear-gradient-28" x1="267.03" y1="894.48" x2="374.48" y2="1001.93" xlink:href="#linear-gradient"/><clipPath id="clip-path-29"><path class="cls-1" d="M178.68,830.49,142,851.69a10,10,0,0,0-5,8.65v42.38a10,10,0,0,0,5,8.65l36.71,21.19a10,10,0,0,0,10,0l36.7-21.19a10,10,0,0,0,5-8.65V860.34a10,10,0,0,0-5-8.65l-36.7-21.2A10,10,0,0,0,178.68,830.49Z"/></clipPath><linearGradient id="linear-gradient-29" x1="130.09" y1="827.4" x2="237.54" y2="934.85" xlink:href="#linear-gradient"/><clipPath id="clip-path-30"><path class="cls-1" d="M48.82,763,12.11,784.14a10,10,0,0,0-5,8.65v42.38a10,10,0,0,0,5,8.66L48.82,865a10,10,0,0,0,10,0l36.7-21.19a10,10,0,0,0,5-8.66V792.79a10,10,0,0,0-5-8.65L58.81,763A10,10,0,0,0,48.82,763Z"/></clipPath><linearGradient id="linear-gradient-30" x1="0.23" y1="759.85" x2="107.68" y2="867.3" xlink:href="#linear-gradient"/><clipPath id="clip-path-31"><path class="cls-1" d="M47.41,908.88l-36.7,21.19a10,10,0,0,0-5,8.65V981.1a10,10,0,0,0,5,8.65l36.7,21.19a10,10,0,0,0,10,0l36.71-21.19a10,10,0,0,0,5-8.65V938.72a10,10,0,0,0-5-8.65L57.4,908.88A10,10,0,0,0,47.41,908.88Z"/></clipPath><linearGradient id="linear-gradient-31" x1="-1.17" y1="905.78" x2="106.28" y2="1013.23" xlink:href="#linear-gradient"/><clipPath id="clip-path-32"><path class="cls-1" d="M187.89-39.7l-36.7,21.19a10,10,0,0,0-5,8.66V32.53a10,10,0,0,0,5,8.65l36.7,21.19a10,10,0,0,0,10,0l36.71-21.19a10,10,0,0,0,5-8.65V-9.85a10,10,0,0,0-5-8.66L197.88-39.7A10,10,0,0,0,187.89-39.7Z"/></clipPath><linearGradient id="linear-gradient-32" x1="139.31" y1="-42.8" x2="246.76" y2="64.65" xlink:href="#linear-gradient"/><clipPath id="clip-path-33"><path class="cls-1" d="M72.36,37.1,35.66,58.29a10,10,0,0,0-5,8.65v42.39a10,10,0,0,0,5,8.65l36.7,21.19a10,10,0,0,0,10,0L119.06,118a10,10,0,0,0,5-8.65V66.94a10,10,0,0,0-5-8.65L82.35,37.1A10,10,0,0,0,72.36,37.1Z"/></clipPath><linearGradient id="linear-gradient-33" x1="23.78" y1="34" x2="131.23" y2="141.45" xlink:href="#linear-gradient"/><clipPath id="clip-path-34"><path class="cls-1" d="M408.18-34.91l-36.7,21.19a10,10,0,0,0-5,8.65V37.31a10,10,0,0,0,5,8.66l36.7,21.19a10,10,0,0,0,10,0L454.87,46a10,10,0,0,0,5-8.66V-5.07a10,10,0,0,0-5-8.65l-36.7-21.19A10,10,0,0,0,408.18-34.91Z"/></clipPath><linearGradient id="linear-gradient-34" x1="359.6" y1="-38.01" x2="467.05" y2="69.44" xlink:href="#linear-gradient"/><clipPath id="clip-path-35"><path class="cls-1" d="M529.14,44,492.43,65.21a10,10,0,0,0-5,8.65v42.38a10,10,0,0,0,5,8.66l36.71,21.19a10,10,0,0,0,10,0l36.7-21.19a10,10,0,0,0,5-8.66V73.86a10,10,0,0,0-5-8.65L539.13,44A10,10,0,0,0,529.14,44Z"/></clipPath><linearGradient id="linear-gradient-35" x1="480.55" y1="40.92" x2="588" y2="148.37" xlink:href="#linear-gradient"/></defs><g class="cls-2"><rect class="cls-3" x="247.62" y="22.93" width="100.2" height="114.7"/></g><rect class="cls-4" x="294" y="67.04" width="52.39" height="1.17" transform="translate(9.09 169.16) rotate(-30)"/><rect class="cls-4" x="248.66" y="66.82" width="53.13" height="1.21" transform="translate(479.87 263.43) rotate(-150)"/><rect class="cls-4" x="296.99" y="80.69" width="1.44" height="52.21"/><g class="cls-5"><rect class="cls-6" x="132.09" y="99.73" width="100.2" height="114.7"/></g><rect class="cls-4" x="178.47" y="143.84" width="52.39" height="1.17" transform="matrix(0.87, -0.5, 0.5, 0.87, -44.79, 121.68)"/><rect class="cls-4" x="133.13" y="143.62" width="53.13" height="1.21" transform="translate(225.89 348.97) rotate(-150)"/><rect class="cls-4" x="181.46" y="157.49" width="1.44" height="52.21"/><g class="cls-7"><rect class="cls-8" x="3.06" y="182.05" width="100.2" height="114.7"/></g><rect class="cls-4" x="49.44" y="226.16" width="52.39" height="1.17" transform="matrix(0.87, -0.5, 0.5, 0.87, -103.24, 68.2)"/><rect class="cls-4" x="4.1" y="225.94" width="53.13" height="1.21" transform="translate(-56.05 438.07) rotate(-150)"/><rect class="cls-4" x="52.43" y="239.81" width="1.44" height="52.21"/><g class="cls-9"><rect class="cls-10" x="374.84" y="96.01" width="100.2" height="114.7"/></g><rect class="cls-4" x="421.22" y="140.12" width="52.39" height="1.17" transform="matrix(0.87, -0.5, 0.5, 0.87, -10.41, 242.56)"/><rect class="cls-4" x="375.87" y="139.9" width="53.13" height="1.21" transform="translate(680.71 463.41) rotate(-150)"/><rect class="cls-4" x="424.2" y="153.77" width="1.44" height="52.21"/><g class="cls-11"><rect class="cls-12" x="495.79" y="174.95" width="100.2" height="114.7"/></g><rect class="cls-4" x="542.17" y="219.06" width="52.39" height="1.17" transform="translate(-33.67 313.61) rotate(-30)"/><rect class="cls-4" x="496.83" y="218.84" width="53.13" height="1.21" transform="translate(866.95 671.18) rotate(-150)"/><rect class="cls-4" x="545.16" y="232.71" width="1.44" height="52.21"/><g class="cls-13"><rect class="cls-14" x="253.61" y="169.52" width="100.2" height="114.7"/></g><rect class="cls-4" x="299.99" y="213.64" width="52.39" height="1.17" transform="translate(-63.41 191.8) rotate(-30)"/><rect class="cls-4" x="254.65" y="213.42" width="53.13" height="1.21" transform="translate(417.74 539.97) rotate(-150)"/><rect class="cls-4" x="302.98" y="227.28" width="1.44" height="52.21"/><g class="cls-15"><rect class="cls-16" x="380.9" y="243.01" width="100.2" height="114.7"/></g><rect class="cls-4" x="427.28" y="287.12" width="52.39" height="1.17" transform="matrix(0.87, -0.5, 0.5, 0.87, -83.1, 265.28)"/><rect class="cls-4" x="381.93" y="286.9" width="53.13" height="1.21" transform="translate(618.52 740.75) rotate(-150)"/><rect class="cls-4" x="430.26" y="300.77" width="1.44" height="52.21"/><g class="cls-17"><rect class="cls-18" x="118.01" y="247.82" width="100.2" height="114.7"/></g><rect class="cls-4" x="164.39" y="291.93" width="52.39" height="1.17" transform="matrix(0.87, -0.5, 0.5, 0.87, -120.72, 134.48)"/><rect class="cls-4" x="119.04" y="291.71" width="53.13" height="1.21" transform="translate(125.56 618.27) rotate(-150)"/><rect class="cls-4" x="167.37" y="305.58" width="1.44" height="52.21"/><g class="cls-19"><rect class="cls-20" x="253.03" y="324.12" width="100.2" height="114.7"/></g><rect class="cls-4" x="299.41" y="368.23" width="52.39" height="1.17" transform="matrix(0.87, -0.5, 0.5, 0.87, -140.79, 212.21)"/><rect class="cls-4" x="254.06" y="368.01" width="53.13" height="1.21" transform="translate(339.35 828.16) rotate(-150)"/><rect class="cls-4" x="302.39" y="381.88" width="1.44" height="52.21"/><g class="cls-21"><rect class="cls-22" x="3.03" y="325.8" width="100.2" height="114.7"/></g><rect class="cls-4" x="49.42" y="369.91" width="52.39" height="1.17" transform="matrix(0.87, -0.5, 0.5, 0.87, -175.12, 87.44)"/><rect class="cls-4" x="4.07" y="369.69" width="53.13" height="1.21" transform="translate(-127.98 706.3) rotate(-150)"/><rect class="cls-4" x="52.4" y="383.56" width="1.44" height="52.21"/><g class="cls-23"><rect class="cls-24" x="135.94" y="404.23" width="100.2" height="114.7"/></g><rect class="cls-4" x="182.32" y="448.34" width="52.39" height="1.17" transform="translate(-196.52 164.4) rotate(-30)"/><rect class="cls-4" x="136.98" y="448.12" width="53.13" height="1.21" transform="translate(80.82 919.1) rotate(-150)"/><rect class="cls-4" x="185.31" y="461.99" width="1.44" height="52.21"/><g class="cls-25"><rect class="cls-26" x="2.2" y="470.89" width="100.2" height="114.7"/></g><rect class="cls-4" x="48.58" y="515" width="52.39" height="1.17" transform="matrix(0.87, -0.5, 0.5, 0.87, -247.77, 106.47)"/><rect class="cls-4" x="3.24" y="514.78" width="53.13" height="1.21" transform="translate(-202.08 976.63) rotate(-150)"/><rect class="cls-4" x="51.57" y="528.65" width="1.44" height="52.21"/><g class="cls-27"><rect class="cls-28" x="495.52" y="317.16" width="100.2" height="114.7"/></g><rect class="cls-4" x="541.9" y="361.27" width="52.39" height="1.17" transform="matrix(0.87, -0.5, 0.5, 0.87, -104.82, 332.53)"/><rect class="cls-4" x="496.56" y="361.05" width="53.13" height="1.21" transform="translate(795.33 936.43) rotate(-150)"/><rect class="cls-4" x="544.89" y="374.92" width="1.44" height="52.21"/><g class="cls-29"><rect class="cls-30" x="366.49" y="399.49" width="100.2" height="114.7"/></g><rect class="cls-4" x="412.87" y="443.6" width="52.39" height="1.17" transform="matrix(0.87, -0.5, 0.5, 0.87, -163.27, 279.04)"/><rect class="cls-4" x="367.52" y="443.38" width="53.13" height="1.21" transform="translate(513.39 1025.52) rotate(-150)"/><rect class="cls-4" x="415.85" y="457.24" width="1.44" height="52.21"/><g class="cls-31"><rect class="cls-32" x="496.43" y="465.25" width="100.2" height="114.7"/></g><rect class="cls-4" x="542.82" y="509.36" width="52.39" height="1.17" transform="matrix(0.87, -0.5, 0.5, 0.87, -178.74, 352.83)"/><rect class="cls-4" x="497.47" y="509.14" width="53.13" height="1.21" transform="translate(722.99 1213.22) rotate(-150)"/><rect class="cls-4" x="545.8" y="523.01" width="1.44" height="52.21"/><g class="cls-33"><rect class="cls-34" x="252.7" y="458.72" width="100.2" height="114.7"/></g><rect class="cls-4" x="299.09" y="502.83" width="52.39" height="1.17" transform="translate(-208.13 230.09) rotate(-30)"/><rect class="cls-4" x="253.74" y="502.61" width="53.13" height="1.21" transform="translate(271.45 1079.17) rotate(-150)"/><rect class="cls-4" x="302.07" y="516.48" width="1.44" height="52.21"/><g class="cls-35"><rect class="cls-36" x="137.17" y="535.52" width="100.2" height="114.7"/></g><rect class="cls-4" x="183.56" y="579.63" width="52.39" height="1.17" transform="matrix(0.87, -0.5, 0.5, 0.87, -262.01, 182.61)"/><rect class="cls-4" x="138.21" y="579.41" width="53.13" height="1.21" transform="translate(17.47 1164.72) rotate(-150)"/><rect class="cls-4" x="186.54" y="593.28" width="1.44" height="52.21"/><g class="cls-37"><rect class="cls-38" x="3.12" y="610.52" width="100.2" height="114.7"/></g><rect class="cls-4" x="49.5" y="654.63" width="52.39" height="1.17" transform="matrix(0.87, -0.5, 0.5, 0.87, -317.46, 125.63)"/><rect class="cls-4" x="4.16" y="654.41" width="53.13" height="1.21" transform="translate(-270.17 1237.63) rotate(-150)"/><rect class="cls-4" x="52.49" y="668.28" width="1.44" height="52.21"/><g class="cls-39"><rect class="cls-40" x="379.92" y="531.81" width="100.2" height="114.7"/></g><rect class="cls-4" x="426.3" y="575.92" width="52.39" height="1.17" transform="matrix(0.87, -0.5, 0.5, 0.87, -227.63, 303.49)"/><rect class="cls-4" x="380.96" y="575.7" width="53.13" height="1.21" transform="translate(472.29 1279.16) rotate(-150)"/><rect class="cls-4" x="429.29" y="589.57" width="1.44" height="52.21"/><g class="cls-41"><rect class="cls-42" x="495.87" y="600.74" width="100.2" height="114.7"/></g><rect class="cls-4" x="542.26" y="645.85" width="52.39" height="1.17" transform="translate(-247.06 370.83) rotate(-30)"/><rect class="cls-4" x="496.91" y="645.63" width="53.13" height="1.21" transform="translate(653.7 1467.63) rotate(-150)"/><rect class="cls-4" x="545.24" y="659.5" width="1.44" height="52.21"/><g class="cls-43"><rect class="cls-44" x="258.69" y="605.32" width="100.2" height="114.7"/></g><rect class="cls-4" x="305.08" y="649.43" width="52.39" height="1.17" transform="matrix(0.87, -0.5, 0.5, 0.87, -280.63, 252.72)"/><rect class="cls-4" x="259.73" y="649.21" width="53.13" height="1.21" transform="translate(209.33 1355.72) rotate(-150)"/><rect class="cls-4" x="308.06" y="663.08" width="1.44" height="52.21"/><g class="cls-45"><rect class="cls-46" x="369.98" y="676.81" width="100.2" height="114.7"/></g><rect class="cls-4" x="416.36" y="720.92" width="52.39" height="1.17" transform="matrix(0.87, -0.5, 0.5, 0.87, -301.46, 317.94)"/><rect class="cls-4" x="371.02" y="720.7" width="53.13" height="1.21" transform="translate(381.25 1544.76) rotate(-150)"/><rect class="cls-4" x="419.35" y="734.57" width="1.44" height="52.21"/><g class="cls-47"><rect class="cls-48" x="144.09" y="681.61" width="100.2" height="114.7"/></g><rect class="cls-4" x="190.47" y="725.72" width="52.39" height="1.17" transform="matrix(0.87, -0.5, 0.5, 0.87, -334.13, 205.64)"/><rect class="cls-4" x="145.13" y="725.5" width="53.13" height="1.21" transform="translate(-42.67 1440.78) rotate(-150)"/><rect class="cls-4" x="193.46" y="739.37" width="1.44" height="52.21"/><g class="cls-49"><rect class="cls-50" x="258.11" y="744.92" width="100.2" height="114.7"/></g><rect class="cls-4" x="304.49" y="789.03" width="52.39" height="1.17" transform="matrix(0.87, -0.5, 0.5, 0.87, -350.5, 271.13)"/><rect class="cls-4" x="259.15" y="788.81" width="53.13" height="1.21" transform="translate(138.44 1615.92) rotate(-150)"/><rect class="cls-4" x="307.48" y="802.68" width="1.44" height="52.21"/><g class="cls-51"><rect class="cls-52" x="375.69" y="814.97" width="100.2" height="114.7"/></g><rect class="cls-4" x="422.07" y="859.08" width="52.39" height="1.17" transform="matrix(0.87, -0.5, 0.5, 0.87, -369.78, 339.31)"/><rect class="cls-4" x="376.73" y="858.86" width="53.13" height="1.21" transform="translate(322.83 1805.43) rotate(-150)"/><rect class="cls-4" x="425.06" y="872.73" width="1.44" height="52.21"/><g class="cls-53"><rect class="cls-54" x="495.23" y="741.84" width="100.2" height="114.7"/></g><rect class="cls-4" x="541.62" y="785.95" width="52.39" height="1.17" transform="matrix(0.87, -0.5, 0.5, 0.87, -317.19, 389.28)"/><rect class="cls-4" x="496.27" y="785.73" width="53.13" height="1.21" transform="translate(582.46 1728.73) rotate(-150)"/><rect class="cls-4" x="544.6" y="799.59" width="1.44" height="52.21"/><g class="cls-55"><rect class="cls-56" x="495.73" y="886.58" width="100.2" height="114.7"/></g><rect class="cls-4" x="542.11" y="930.69" width="52.39" height="1.17" transform="matrix(0.87, -0.5, 0.5, 0.87, -389.5, 408.92)"/><rect class="cls-4" x="496.76" y="930.47" width="53.13" height="1.21" transform="translate(511.01 1999.07) rotate(-150)"/><rect class="cls-4" x="545.09" y="944.34" width="1.44" height="52.21"/><g class="cls-57"><rect class="cls-58" x="270.65" y="890.85" width="100.2" height="114.7"/></g><rect class="cls-4" x="317.03" y="934.96" width="52.39" height="1.17" transform="matrix(0.87, -0.5, 0.5, 0.87, -421.79, 296.96)"/><rect class="cls-4" x="271.69" y="934.74" width="53.13" height="1.21" transform="translate(88.88 1894.51) rotate(-150)"/><rect class="cls-4" x="320.02" y="948.61" width="1.44" height="52.21"/><g class="cls-59"><rect class="cls-60" x="133.72" y="823.77" width="100.2" height="114.7"/></g><rect class="cls-4" x="180.1" y="867.88" width="52.39" height="1.17" transform="matrix(0.87, -0.5, 0.5, 0.87, -406.59, 219.5)"/><rect class="cls-4" x="134.76" y="867.66" width="53.13" height="1.21" transform="translate(-133.1 1700.87) rotate(-150)"/><rect class="cls-4" x="183.09" y="881.53" width="1.44" height="52.21"/><g class="cls-61"><rect class="cls-62" x="3.86" y="756.22" width="100.2" height="114.7"/></g><rect class="cls-4" x="50.24" y="800.33" width="52.39" height="1.17" transform="matrix(0.87, -0.5, 0.5, 0.87, -390.22, 145.52)"/><rect class="cls-4" x="4.9" y="800.11" width="53.13" height="1.21" transform="translate(-341.65 1509.89) rotate(-150)"/><rect class="cls-4" x="53.23" y="813.98" width="1.44" height="52.21"/><g class="cls-63"><rect class="cls-64" x="2.45" y="902.15" width="100.2" height="114.7"/></g><rect class="cls-4" x="48.84" y="946.26" width="52.39" height="1.17" transform="matrix(0.87, -0.5, 0.5, 0.87, -463.37, 164.37)"/><rect class="cls-4" x="3.49" y="946.04" width="53.13" height="1.21" transform="translate(-417.24 1781.49) rotate(-150)"/><rect class="cls-4" x="51.82" y="959.91" width="1.44" height="52.21"/><g class="cls-65"><rect class="cls-66" x="142.94" y="-46.42" width="100.2" height="114.7"/></g><rect class="cls-4" x="189.32" y="-2.31" width="52.39" height="1.17" transform="matrix(0.87, -0.5, 0.5, 0.87, 29.74, 107.53)"/><rect class="cls-4" x="143.97" y="-2.53" width="53.13" height="1.21" transform="translate(319.19 81.67) rotate(-150)"/><rect class="cls-4" x="192.3" y="11.34" width="1.44" height="52.21"/><g class="cls-67"><rect class="cls-68" x="27.41" y="30.38" width="100.2" height="114.7"/></g><rect class="cls-4" x="73.79" y="74.49" width="52.39" height="1.17" transform="matrix(0.87, -0.5, 0.5, 0.87, -24.14, 60.05)"/><rect class="cls-4" x="28.44" y="74.27" width="53.13" height="1.21" transform="translate(65.21 167.22) rotate(-150)"/><rect class="cls-4" x="76.77" y="88.14" width="1.44" height="52.21"/><g class="cls-69"><rect class="cls-70" x="363.22" y="-41.64" width="100.2" height="114.7"/></g><rect class="cls-4" x="409.6" y="2.47" width="52.39" height="1.17" transform="matrix(0.87, -0.5, 0.5, 0.87, 56.86, 218.31)"/><rect class="cls-4" x="364.26" y="2.25" width="53.13" height="1.21" transform="translate(727.86 200.75) rotate(-150)"/><rect class="cls-4" x="412.59" y="16.12" width="1.44" height="52.21"/><g class="cls-71"><rect class="cls-72" x="484.18" y="37.29" width="100.2" height="114.7"/></g><rect class="cls-4" x="530.56" y="81.4" width="52.39" height="1.17" transform="translate(33.6 289.36) rotate(-30)"/><rect class="cls-4" x="485.22" y="81.18" width="53.13" height="1.21" transform="translate(914.1 408.51) rotate(-150)"/><rect class="cls-4" x="533.55" y="95.05" width="1.44" height="52.21"/><line class="cls-73" x1="215.51" y1="23.22" x2="220.47" y2="26.61"/><line class="cls-74" x1="230.62" y1="33.56" x2="245.85" y2="43.98"/><line class="cls-73" x1="250.92" y1="47.45" x2="255.88" y2="50.84"/><line class="cls-75" x1="98.78" y1="101.49" x2="140.35" y2="127.64"/><line class="cls-75" x1="320.2" y1="95.05" x2="378.09" y2="132.58"/><line class="cls-75" x1="204.09" y1="167.88" x2="266.09" y2="205.99"/><line class="cls-75" x1="435.8" y1="27.18" x2="492.43" y2="65.21"/><line class="cls-75" x1="447.41" y1="170.85" x2="504.04" y2="202.86"/><line class="cls-75" x1="325.74" y1="239.81" x2="385.19" y2="274.75"/><line class="cls-75" x1="452.5" y1="314.52" x2="503.77" y2="345.08"/><line class="cls-75" x1="75.57" y1="253.39" x2="122.91" y2="278.5"/><line class="cls-75" x1="187.98" y1="318.49" x2="257.93" y2="354.81"/><line class="cls-75" x1="325.02" y1="395.77" x2="379.53" y2="424.63"/><line class="cls-75" x1="439.06" y1="467.11" x2="501.33" y2="495.94"/><line class="cls-75" x1="75.61" y1="397.27" x2="135.24" y2="432.65"/><line class="cls-75" x1="208.52" y1="474.05" x2="255.96" y2="503.22"/><line class="cls-75" x1="325.02" y1="526.05" x2="388.17" y2="559.73"/><line class="cls-75" x1="452.5" y1="601.86" x2="500.77" y2="632.43"/><line class="cls-75" x1="74.78" y1="540.06" x2="126.23" y2="568.81"/><line class="cls-75" x1="208.52" y1="605.83" x2="263.59" y2="636.01"/><line class="cls-75" x1="331.27" y1="675.18" x2="378.23" y2="704.72"/><line class="cls-75" x1="454.56" y1="748.5" x2="500.13" y2="772.52"/><line class="cls-75" x1="75.7" y1="680.86" x2="135.32" y2="716.2"/><line class="cls-75" x1="215.51" y1="751.48" x2="262.4" y2="776.65"/><line class="cls-75" x1="330.69" y1="812.91" x2="385.98" y2="848.77"/><line class="cls-75" x1="448.27" y1="883.26" x2="507.98" y2="914.49"/><line class="cls-75" x1="201.95" y1="894.26" x2="258.95" y2="926.59"/><line class="cls-75" x1="76.44" y1="826.18" x2="127.34" y2="855.74"/><line class="cls-75" x1="-38.6" y1="759.79" x2="8.15" y2="787.96"/><line class="cls-75" x1="-47.87" y1="901.8" x2="5.71" y2="938.72"/><line class="cls-75" x1="75.03" y1="974.13" x2="126.18" y2="1006.82"/><line class="cls-75" x1="390.83" y1="28.17" x2="342.59" y2="54.02"/><line class="cls-75" x1="168.82" y1="23.22" x2="119.06" y2="58.29"/><line class="cls-75" x1="510.84" y1="106.79" x2="470.39" y2="128.12"/><line class="cls-75" x1="275.23" y1="91.59" x2="223.74" y2="127.64"/><line class="cls-75" x1="159.7" y1="167.88" x2="94.71" y2="209.96"/><line class="cls-75" x1="280.31" y1="239.81" x2="212.98" y2="278.91"/><line class="cls-75" x1="407.52" y1="309.57" x2="344.68" y2="352.04"/><line class="cls-75" x1="402.44" y1="162.93" x2="345.26" y2="197.44"/><line class="cls-75" x1="523.12" y1="239.81" x2="472.55" y2="270.93"/><line class="cls-75" x1="576.64" y1="339" x2="603.23" y2="322.45"/><line class="cls-75" x1="523.12" y1="387.84" x2="458.14" y2="427.4"/><line class="cls-75" x1="578.61" y1="487.7" x2="617.1" y2="461.99"/><line class="cls-75" x1="30.66" y1="253.39" x2="-25.56" y2="287.71"/><line class="cls-75" x1="134.99" y1="316.02" x2="84.46" y2="347.81"/><line class="cls-75" x1="280.31" y1="394.78" x2="218.93" y2="427.14"/><line class="cls-75" x1="394.09" y1="469.09" x2="343.48" y2="493.59"/><line class="cls-75" x1="524.04" y1="533.49" x2="470.2" y2="565.61"/><line class="cls-75" x1="574.12" y1="620.92" x2="625.03" y2="589.57"/><line class="cls-75" x1="30.64" y1="397.27" x2="-34.51" y2="435.77"/><line class="cls-75" x1="29.8" y1="541.05" x2="-39.96" y2="582.82"/><line class="cls-75" x1="147.7" y1="477.44" x2="92.88" y2="505.82"/><line class="cls-75" x1="280.31" y1="526.05" x2="222.95" y2="559.33"/><line class="cls-75" x1="403.3" y1="599.88" x2="350.35" y2="633.24"/><line class="cls-75" x1="524.04" y1="669.24" x2="461.63" y2="704.72"/><line class="cls-75" x1="572.76" y1="761.6" x2="629.1" y2="721.51"/><line class="cls-75" x1="147.99" y1="607.92" x2="96.24" y2="634.44"/><line class="cls-75" x1="285.71" y1="671.22" x2="227.3" y2="704.65"/><line class="cls-75" x1="397.58" y1="746.52" x2="349.76" y2="772.83"/><line class="cls-75" x1="522.84" y1="807.95" x2="479.34" y2="842.88"/><line class="cls-75" x1="28.63" y1="680.86" x2="-10.01" y2="708.09"/><line class="cls-75" x1="153.56" y1="748.67" x2="95.09" y2="789.47"/><line class="cls-75" x1="260.22" y1="823.91" x2="217.96" y2="847.41"/><line class="cls-75" x1="397.44" y1="893.23" x2="362.3" y2="918.77"/><line class="cls-75" x1="523.33" y1="956.58" x2="471.73" y2="996.55"/><line class="cls-75" x1="29.08" y1="824.2" x2="-12.23" y2="851.43"/><line class="cls-75" x1="135.62" y1="900.3" x2="73.11" y2="941.07"/><line class="cls-75" x1="297.07" y1="956.64" x2="227.24" y2="1003.55"/></svg>