<svg width="400" height="747" id="Layer_1" data-name="Layer 1" xmlns="http://www.w3.org/2000/svg" xmlns:xlink="http://www.w3.org/1999/xlink" viewBox="0 0 624.6 1282.71"><defs><style>.cls-1{fill:none;}.cls-2{clip-path:url(#clip-path);}.cls-3{fill:url(#linear-gradient);}.cls-4{fill:#fff;}.cls-5{clip-path:url(#clip-path-2);}.cls-6{fill:url(#linear-gradient-2);}.cls-7{clip-path:url(#clip-path-3);}.cls-8{fill:url(#linear-gradient-3);}.cls-9{clip-path:url(#clip-path-4);}.cls-10{fill:url(#linear-gradient-4);}.cls-11{clip-path:url(#clip-path-5);}.cls-12{fill:url(#linear-gradient-5);}.cls-13{clip-path:url(#clip-path-6);}.cls-14{fill:url(#linear-gradient-6);}</style><clipPath id="clip-path"><path class="cls-1" d="M444.76,346,310.41,423.54a10,10,0,0,0-5,8.65V587.33a10,10,0,0,0,5,8.65l134.35,77.57a10,10,0,0,0,10,0L589.11,596a10,10,0,0,0,5-8.65V432.19a10,10,0,0,0-5-8.65L454.75,346A10,10,0,0,0,444.76,346Z"/></clipPath><linearGradient id="linear-gradient" x1="284.13" y1="342.42" x2="616.29" y2="674.57" gradientUnits="userSpaceOnUse"><stop offset="0" stop-color="#161412" stop-opacity="0"/><stop offset="0" stop-color="#ff0bac"/><stop offset="0.65" stop-color="#7410cc"/><stop offset="1" stop-color="#2f12dc"/></linearGradient><clipPath id="clip-path-2"><path class="cls-1" d="M156.64,8.45,22.28,86a10,10,0,0,0-5,8.66V249.82a10,10,0,0,0,5,8.65L156.64,336a10,10,0,0,0,10,0L301,258.47a10,10,0,0,0,5-8.65V94.68A10,10,0,0,0,301,86L166.63,8.45A10,10,0,0,0,156.64,8.45Z"/></clipPath><linearGradient id="linear-gradient-2" x1="-3.99" y1="4.9" x2="328.17" y2="337.06" xlink:href="#linear-gradient"/><clipPath id="clip-path-3"><path class="cls-1" d="M301.37,259.13,167,336.7a10,10,0,0,0-5,8.65V500.49a10,10,0,0,0,5,8.65l134.36,77.57a10,10,0,0,0,10,0l134.35-77.57a10,10,0,0,0,5-8.65V345.35a10,10,0,0,0-5-8.65L311.36,259.13A10,10,0,0,0,301.37,259.13Z"/></clipPath><linearGradient id="linear-gradient-3" x1="140.74" y1="255.58" x2="472.9" y2="587.73" xlink:href="#linear-gradient"/><clipPath id="clip-path-4"><path class="cls-1" d="M154.83,505.68,20.47,583.25a10,10,0,0,0-5,8.65V747a10,10,0,0,0,5,8.65l134.36,77.57a10,10,0,0,0,10,0l134.36-77.57a10,10,0,0,0,5-8.65V591.9a10,10,0,0,0-5-8.65L164.82,505.68A10,10,0,0,0,154.83,505.68Z"/></clipPath><linearGradient id="linear-gradient-4" x1="-5.8" y1="502.13" x2="326.36" y2="834.28" xlink:href="#linear-gradient"/><clipPath id="clip-path-5"><path class="cls-1" d="M443.13,837.05,308.78,914.62a10,10,0,0,0-5,8.66v155.14a10,10,0,0,0,5,8.65l134.35,77.57a10,10,0,0,0,10,0l134.36-77.57a10,10,0,0,0,5-8.65V923.28a10,10,0,0,0-5-8.66L453.12,837.05A10,10,0,0,0,443.13,837.05Z"/></clipPath><linearGradient id="linear-gradient-5" x1="282.51" y1="833.5" x2="614.66" y2="1165.66" xlink:href="#linear-gradient"/><clipPath id="clip-path-6"><path class="cls-1" d="M299.56,756.35,165.2,833.92a10,10,0,0,0-5,8.65V997.71a10,10,0,0,0,5,8.66l134.36,77.57a10,10,0,0,0,10,0l134.35-77.57a10,10,0,0,0,5-8.66V842.57a10,10,0,0,0-5-8.65L309.55,756.35A10,10,0,0,0,299.56,756.35Z"/></clipPath><linearGradient id="linear-gradient-6" x1="138.93" y1="752.8" x2="471.09" y2="1084.96" xlink:href="#linear-gradient"/></defs><g class="cls-2"><rect class="cls-3" x="295.34" y="331.21" width="309.75" height="354.57"/></g><rect class="cls-4" x="438.72" y="467.57" width="161.96" height="3.63" transform="translate(-165.06 322.73) rotate(-30)"/><rect class="cls-4" x="298.55" y="466.89" width="164.25" height="3.74" transform="translate(475.96 1065.05) rotate(-150)"/><rect class="cls-4" x="447.95" y="509.76" width="4.46" height="161.41"/><g class="cls-5"><rect class="cls-6" x="7.22" y="-6.3" width="309.75" height="354.57"/></g><rect class="cls-4" x="150.6" y="130.05" width="161.96" height="3.63" transform="translate(-34.91 133.46) rotate(-30)"/><rect class="cls-4" x="10.42" y="129.37" width="164.25" height="3.74" transform="translate(107.07 291.18) rotate(-150)"/><rect class="cls-4" x="159.83" y="172.25" width="4.46" height="161.41"/><g class="cls-7"><rect class="cls-8" x="151.95" y="244.37" width="309.75" height="354.57"/></g><rect class="cls-4" x="295.32" y="380.73" width="161.96" height="3.63" transform="translate(-140.86 239.4) rotate(-30)"/><rect class="cls-4" x="155.15" y="380.05" width="164.25" height="3.74" transform="translate(251.8 831.31) rotate(-150)"/><rect class="cls-4" x="304.55" y="422.92" width="4.46" height="161.41"/><g class="cls-9"><rect class="cls-10" x="5.41" y="490.92" width="309.75" height="354.57"/></g><g class="cls-11"><rect class="cls-12" x="293.71" y="822.3" width="309.75" height="354.57"/></g><rect class="cls-4" x="437.09" y="958.65" width="161.96" height="3.63" transform="translate(-410.82 387.71) rotate(-30)"/><rect class="cls-4" x="296.92" y="957.97" width="164.25" height="3.74" transform="translate(227.38 1980.61) rotate(-150)"/><rect class="cls-4" x="446.32" y="1000.85" width="4.46" height="161.41"/><rect class="cls-4" x="148.79" y="627.27" width="161.96" height="3.63" transform="translate(-283.76 199.17) rotate(-30)"/><rect class="cls-4" x="8.61" y="626.59" width="164.25" height="3.74" transform="translate(-144.91 1218.1) rotate(-150)"/><rect class="cls-4" x="158.02" y="669.47" width="4.46" height="161.41"/><g class="cls-13"><rect class="cls-14" x="150.14" y="741.6" width="309.75" height="354.57"/></g><rect class="cls-4" x="293.51" y="877.95" width="161.96" height="3.63" transform="translate(-389.71 305.11) rotate(-30)"/><rect class="cls-4" x="153.34" y="877.27" width="164.25" height="3.74" transform="translate(-0.19 1758.23) rotate(-150)"/><rect class="cls-4" x="302.74" y="920.14" width="4.46" height="161.41"/></svg>