<svg width="500" height="747" id="Layer_1" data-name="Layer 1" xmlns="http://www.w3.org/2000/svg" xmlns:xlink="http://www.w3.org/1999/xlink" viewBox="0 0 595.15 975.4"><defs><style>.cls-1,.cls-26,.cls-27,.cls-30,.cls-31{fill:none;}.cls-2{clip-path:url(#clip-path);}.cls-3{clip-path:url(#clip-path-2);}.cls-4{fill:url(#linear-gradient);}.cls-5{clip-path:url(#clip-path-3);}.cls-6{fill:url(#linear-gradient-2);}.cls-7{fill:#fff;}.cls-8{clip-path:url(#clip-path-4);}.cls-9{fill:url(#linear-gradient-3);}.cls-10{clip-path:url(#clip-path-5);}.cls-11{fill:url(#linear-gradient-4);}.cls-12{clip-path:url(#clip-path-6);}.cls-13{fill:url(#linear-gradient-5);}.cls-14{clip-path:url(#clip-path-7);}.cls-15{fill:url(#linear-gradient-6);}.cls-16{clip-path:url(#clip-path-8);}.cls-17{fill:url(#linear-gradient-7);}.cls-18{clip-path:url(#clip-path-9);}.cls-19{fill:url(#linear-gradient-8);}.cls-20{clip-path:url(#clip-path-10);}.cls-21{fill:url(#linear-gradient-9);}.cls-22{clip-path:url(#clip-path-11);}.cls-23{fill:url(#linear-gradient-10);}.cls-24{clip-path:url(#clip-path-12);}.cls-25{fill:url(#linear-gradient-11);}.cls-26,.cls-27,.cls-30,.cls-31{stroke:#dadada;stroke-linecap:round;stroke-miterlimit:10;}.cls-26,.cls-27,.cls-31{stroke-width:3px;}.cls-27{stroke-dasharray:11.47 11.47;}.cls-28{clip-path:url(#clip-path-13);}.cls-29{fill:url(#linear-gradient-12);}.cls-30{stroke-width:4px;}.cls-30,.cls-31{stroke-dasharray:12;}.cls-32{clip-path:url(#clip-path-14);}.cls-33{fill:url(#linear-gradient-13);}.cls-34{clip-path:url(#clip-path-15);}.cls-35{fill:url(#linear-gradient-14);}.cls-36{clip-path:url(#clip-path-16);}.cls-37{fill:url(#linear-gradient-15);}.cls-38{clip-path:url(#clip-path-17);}.cls-39{fill:url(#linear-gradient-16);}.cls-40{clip-path:url(#clip-path-18);}.cls-41{fill:url(#linear-gradient-17);}.cls-42{clip-path:url(#clip-path-19);}.cls-43{fill:url(#linear-gradient-18);}.cls-44{clip-path:url(#clip-path-20);}.cls-45{fill:url(#linear-gradient-19);}.cls-46{clip-path:url(#clip-path-21);}.cls-47{fill:url(#linear-gradient-20);}.cls-48{clip-path:url(#clip-path-22);}.cls-49{fill:url(#linear-gradient-21);}</style><clipPath id="clip-path"><path class="cls-1" d="M-195.67,225.85a89.84,89.84,0,0,1-26.8,75.52A69.38,69.38,0,0,0-243.57,351v10.46h-83.19V351a71,71,0,0,0-21.89-50.43,90.13,90.13,0,0,1-19.86-98.23,90.12,90.12,0,0,1,83.22-55.85,93.53,93.53,0,0,1,10.71.61,90.35,90.35,0,0,1,78.92,78.72Zm-89.5,204.92a20.82,20.82,0,0,0,19.61-13.86h-39.22A20.84,20.84,0,0,0-285.17,430.77Zm-34.66-34.66A6.93,6.93,0,0,0-312.9,403h55.47a6.94,6.94,0,0,0,6.93-6.93v-20.8h-69.33Zm34.66-291.18A13.87,13.87,0,0,0-271.3,91.06V56.4a13.87,13.87,0,0,0-13.87-13.87A13.87,13.87,0,0,0-299,56.4V91.06A13.87,13.87,0,0,0-285.17,104.93Zm-117,34.31a14.21,14.21,0,0,0,19.62,0,13.87,13.87,0,0,0,4.06-9.8,13.87,13.87,0,0,0-4.06-9.81l-24.52-24.51a13.85,13.85,0,0,0-9.8-4.06,13.85,13.85,0,0,0-9.8,4.06,13.84,13.84,0,0,0-4.07,9.81,13.84,13.84,0,0,0,4.07,9.8Zm-14.7,97.41a13.86,13.86,0,0,0-13.87-13.86h-34.66a13.87,13.87,0,0,0-13.87,13.86,13.88,13.88,0,0,0,13.87,13.87h34.66A13.87,13.87,0,0,0-416.89,236.65Zm28.11,93.8a13.9,13.9,0,0,0-13.41,3.61l-24.5,24.51a13.84,13.84,0,0,0-4.07,9.81,13.82,13.82,0,0,0,4.07,9.8,14.18,14.18,0,0,0,19.6,0l24.52-24.51a13.87,13.87,0,0,0,3.61-13.4A13.9,13.9,0,0,0-388.78,330.45Zm220.63,3.61a13.87,13.87,0,0,0-13.4-3.61,13.86,13.86,0,0,0-9.82,9.82,13.87,13.87,0,0,0,3.61,13.4l24.52,24.51a14.18,14.18,0,0,0,19.6,0,13.87,13.87,0,0,0,4.06-9.8,13.87,13.87,0,0,0-4.06-9.81Zm63.24-111.27h-34.67a13.86,13.86,0,0,0-13.86,13.86,13.87,13.87,0,0,0,13.86,13.87h34.67A13.87,13.87,0,0,0-91,236.65,13.86,13.86,0,0,0-104.91,222.79Zm-63.24-83.55,24.51-24.51A13.87,13.87,0,0,0-140,101.34a13.88,13.88,0,0,0-9.8-9.81,13.89,13.89,0,0,0-13.4,3.59l-24.51,24.51a13.87,13.87,0,0,0-4.06,9.81,13.87,13.87,0,0,0,4.06,9.8A14.2,14.2,0,0,0-168.15,139.24Z"/></clipPath><clipPath id="clip-path-2"><rect class="cls-1" x="-538.16" y="26.94" width="505.98" height="425.39" rx="8.32"/></clipPath><linearGradient id="linear-gradient" x1="-763.83" y1="-0.31" x2="772.89" y2="1536.41" gradientTransform="translate(-262.08 -179.77) scale(1 0.5)" gradientUnits="userSpaceOnUse"><stop offset="0" stop-color="#161412" stop-opacity="0"/><stop offset="0" stop-color="#ff0bac"/><stop offset="0.65" stop-color="#7410cc"/><stop offset="1" stop-color="#2f12dc"/></linearGradient><clipPath id="clip-path-3"><path class="cls-1" d="M475.67,515.74,456,527.11a10,10,0,0,0-5,8.65V558.5a10,10,0,0,0,5,8.65l19.69,11.37a10,10,0,0,0,10,0l19.69-11.37a10,10,0,0,0,5-8.65V535.76a10,10,0,0,0-5-8.65l-19.69-11.37A10,10,0,0,0,475.67,515.74Z"/></clipPath><linearGradient id="linear-gradient-2" x1="446.61" y1="512.72" x2="514.91" y2="581.02" gradientTransform="matrix(1, 0, 0, 1, 0, 0)" xlink:href="#linear-gradient"/><clipPath id="clip-path-4"><path class="cls-1" d="M278,468.38l-19.69,11.37a10,10,0,0,0-5,8.65v22.74a10,10,0,0,0,5,8.65L278,531.16a10,10,0,0,0,10,0l19.69-11.37a10,10,0,0,0,5-8.65V488.4a10,10,0,0,0-5-8.65l-19.69-11.37A10,10,0,0,0,278,468.38Z"/></clipPath><linearGradient id="linear-gradient-3" x1="248.89" y1="465.36" x2="317.19" y2="533.66" gradientTransform="matrix(1, 0, 0, 1, 0, 0)" xlink:href="#linear-gradient"/><clipPath id="clip-path-5"><path class="cls-1" d="M288.08,586.53,268.39,597.9a10,10,0,0,0-5,8.65v22.74a10,10,0,0,0,5,8.65l19.69,11.37a10,10,0,0,0,10,0l19.7-11.37a10,10,0,0,0,5-8.65V606.55a10,10,0,0,0-5-8.65l-19.7-11.37A10,10,0,0,0,288.08,586.53Z"/></clipPath><linearGradient id="linear-gradient-4" x1="259.02" y1="583.51" x2="327.32" y2="651.81" gradientTransform="matrix(1, 0, 0, 1, 0, 0)" xlink:href="#linear-gradient"/><clipPath id="clip-path-6"><path class="cls-1" d="M427.93,631.19l-19.69,11.37a10,10,0,0,0-5,8.65V674a10,10,0,0,0,5,8.65L427.93,694a10,10,0,0,0,10,0l19.69-11.37a10,10,0,0,0,5-8.65V651.21a10,10,0,0,0-5-8.65l-19.69-11.37A10,10,0,0,0,427.93,631.19Z"/></clipPath><linearGradient id="linear-gradient-5" x1="398.87" y1="628.17" x2="467.18" y2="696.47" gradientTransform="matrix(1, 0, 0, 1, 0, 0)" xlink:href="#linear-gradient"/><clipPath id="clip-path-7"><path class="cls-1" d="M191,668.33,171.28,679.7a10,10,0,0,0-5,8.65v22.74a10,10,0,0,0,5,8.65L191,731.11a10,10,0,0,0,10,0l19.69-11.37a10,10,0,0,0,5-8.65V688.35a10,10,0,0,0-5-8.65L201,668.33A10,10,0,0,0,191,668.33Z"/></clipPath><linearGradient id="linear-gradient-6" x1="161.91" y1="665.31" x2="230.21" y2="733.61" gradientTransform="matrix(1, 0, 0, 1, 0, 0)" xlink:href="#linear-gradient"/><clipPath id="clip-path-8"><path class="cls-1" d="M330.66,748.52,311,759.88a10,10,0,0,0-5,8.66v22.74a10,10,0,0,0,5,8.65l19.69,11.37a10,10,0,0,0,10,0l19.69-11.37a10,10,0,0,0,5-8.65V768.54a10,10,0,0,0-5-8.66l-19.69-11.36A10,10,0,0,0,330.66,748.52Z"/></clipPath><linearGradient id="linear-gradient-7" x1="301.59" y1="745.49" x2="369.9" y2="813.8" gradientTransform="matrix(1, 0, 0, 1, 0, 0)" xlink:href="#linear-gradient"/><clipPath id="clip-path-9"><path class="cls-1" d="M215.5,17.39,195.81,28.76a10,10,0,0,0-5,8.65V60.15a10,10,0,0,0,5,8.65L215.5,80.17a10,10,0,0,0,10,0l19.7-11.37a10,10,0,0,0,5-8.65V37.41a10,10,0,0,0-5-8.65l-19.7-11.37A10,10,0,0,0,215.5,17.39Z"/></clipPath><linearGradient id="linear-gradient-8" x1="186.44" y1="14.37" x2="254.75" y2="82.67" gradientTransform="matrix(1, 0, 0, 1, 0, 0)" xlink:href="#linear-gradient"/><clipPath id="clip-path-10"><path class="cls-1" d="M120.19,757.64,100.5,769a10,10,0,0,0-5,8.66V800.4a10,10,0,0,0,5,8.66l19.69,11.36a10,10,0,0,0,10,0l19.69-11.36a10,10,0,0,0,5-8.66V777.67a10,10,0,0,0-5-8.66l-19.69-11.37A10,10,0,0,0,120.19,757.64Z"/></clipPath><linearGradient id="linear-gradient-9" x1="91.13" y1="754.62" x2="159.44" y2="822.93" gradientTransform="matrix(1, 0, 0, 1, 0, 0)" xlink:href="#linear-gradient"/><clipPath id="clip-path-11"><path class="cls-1" d="M80.66,586.3,61,597.67a10,10,0,0,0-5,8.65v22.74a10,10,0,0,0,5,8.65l19.69,11.37a10,10,0,0,0,10,0l19.7-11.37a10,10,0,0,0,5-8.65V606.32a10,10,0,0,0-5-8.65L90.65,586.3A10,10,0,0,0,80.66,586.3Z"/></clipPath><linearGradient id="linear-gradient-10" x1="51.6" y1="583.28" x2="119.9" y2="651.58" gradientTransform="matrix(1, 0, 0, 1, 0, 0)" xlink:href="#linear-gradient"/><clipPath id="clip-path-12"><path class="cls-1" d="M498.69,807,479,818.34a10,10,0,0,0-5,8.65v22.74a10,10,0,0,0,5,8.65l19.7,11.37a10,10,0,0,0,10,0l19.69-11.37a10,10,0,0,0,5-8.65V827a10,10,0,0,0-5-8.65L508.68,807A10,10,0,0,0,498.69,807Z"/></clipPath><linearGradient id="linear-gradient-11" x1="469.62" y1="803.95" x2="537.93" y2="872.25" gradientTransform="matrix(1, 0, 0, 1, 0, 0)" xlink:href="#linear-gradient"/><clipPath id="clip-path-13"><path class="cls-1" d="M118,100.61,98.27,112a10,10,0,0,0-5,8.65v22.74a10,10,0,0,0,5,8.65L118,163.39a10,10,0,0,0,10,0L147.65,152a10,10,0,0,0,5-8.65V120.63a10,10,0,0,0-5-8.65L128,100.61A10,10,0,0,0,118,100.61Z"/></clipPath><linearGradient id="linear-gradient-12" x1="88.9" y1="97.59" x2="157.21" y2="165.89" gradientTransform="matrix(1, 0, 0, 1, 0, 0)" xlink:href="#linear-gradient"/><clipPath id="clip-path-14"><path class="cls-1" d="M117.59,291.46,97.9,302.83a10,10,0,0,0-5,8.66v22.73a10,10,0,0,0,5,8.66l19.69,11.37a10,10,0,0,0,10,0l19.7-11.37a10,10,0,0,0,5-8.66V311.49a10,10,0,0,0-5-8.66l-19.7-11.37A10,10,0,0,0,117.59,291.46Z"/></clipPath><linearGradient id="linear-gradient-13" x1="88.53" y1="288.44" x2="156.83" y2="356.75" gradientTransform="matrix(1, 0, 0, 1, 0, 0)" xlink:href="#linear-gradient"/><clipPath id="clip-path-15"><path class="cls-1" d="M338.39,85.5,318.7,96.86a10,10,0,0,0-5,8.66v22.73a10,10,0,0,0,5,8.66l19.69,11.37a10,10,0,0,0,10,0l19.69-11.37a10,10,0,0,0,5-8.66V105.52a10,10,0,0,0-5-8.66L348.38,85.5A10,10,0,0,0,338.39,85.5Z"/></clipPath><linearGradient id="linear-gradient-14" x1="309.33" y1="82.47" x2="377.63" y2="150.78" gradientTransform="matrix(1, 0, 0, 1, 0, 0)" xlink:href="#linear-gradient"/><clipPath id="clip-path-16"><path class="cls-1" d="M476.21,122.38l-19.69,11.37a10,10,0,0,0-5,8.65v22.74a10,10,0,0,0,5,8.66l19.69,11.36a10,10,0,0,0,10,0L505.9,173.8a10,10,0,0,0,5-8.66V142.4a10,10,0,0,0-5-8.65l-19.69-11.37A10,10,0,0,0,476.21,122.38Z"/></clipPath><linearGradient id="linear-gradient-15" x1="447.15" y1="119.36" x2="515.46" y2="187.67" gradientTransform="matrix(1, 0, 0, 1, 0, 0)" xlink:href="#linear-gradient"/><clipPath id="clip-path-17"><path class="cls-1" d="M212.15,213.31l-19.69,11.37a10,10,0,0,0-5,8.65v22.74a10,10,0,0,0,5,8.65l19.69,11.37a10,10,0,0,0,10,0l19.69-11.37a10,10,0,0,0,5-8.65V233.33a10,10,0,0,0-5-8.65l-19.69-11.37A10,10,0,0,0,212.15,213.31Z"/></clipPath><linearGradient id="linear-gradient-16" x1="183.09" y1="210.29" x2="251.39" y2="278.59" gradientTransform="matrix(1, 0, 0, 1, 0, 0)" xlink:href="#linear-gradient"/><clipPath id="clip-path-18"><path class="cls-1" d="M359.2,213.54l-19.69,11.37a10,10,0,0,0-5,8.65V256.3a10,10,0,0,0,5,8.65l19.69,11.37a10,10,0,0,0,10,0L388.88,265a10,10,0,0,0,5-8.65V233.56a10,10,0,0,0-5-8.65l-19.69-11.37A10,10,0,0,0,359.2,213.54Z"/></clipPath><linearGradient id="linear-gradient-17" x1="330.14" y1="210.52" x2="398.44" y2="278.82" gradientTransform="matrix(1, 0, 0, 1, 0, 0)" xlink:href="#linear-gradient"/><clipPath id="clip-path-19"><path class="cls-1" d="M527.82,302.77l-19.69,11.37a10,10,0,0,0-5,8.65v22.74a10,10,0,0,0,5,8.65l19.69,11.37a10,10,0,0,0,10,0l19.69-11.37a10,10,0,0,0,5-8.65V322.79a10,10,0,0,0-5-8.65l-19.69-11.37A10,10,0,0,0,527.82,302.77Z"/></clipPath><linearGradient id="linear-gradient-18" x1="498.76" y1="299.75" x2="567.07" y2="368.05" gradientTransform="matrix(1, 0, 0, 1, 0, 0)" xlink:href="#linear-gradient"/><clipPath id="clip-path-20"><path class="cls-1" d="M388.51,350.49l-19.69,11.37a10,10,0,0,0-5,8.65v22.74a10,10,0,0,0,5,8.65l19.69,11.37a10,10,0,0,0,10,0l19.69-11.37a10,10,0,0,0,5-8.65V370.51a10,10,0,0,0-5-8.65L398.5,350.49A10,10,0,0,0,388.51,350.49Z"/></clipPath><linearGradient id="linear-gradient-19" x1="359.45" y1="347.47" x2="427.75" y2="415.77" gradientTransform="matrix(1, 0, 0, 1, 0, 0)" xlink:href="#linear-gradient"/><clipPath id="clip-path-21"><path class="cls-1" d="M241.29,341.35,221.6,352.72a10,10,0,0,0-5,8.66v22.73a10,10,0,0,0,5,8.66l19.69,11.37a10,10,0,0,0,10,0L271,392.77a10,10,0,0,0,5-8.66V361.38a10,10,0,0,0-5-8.66l-19.69-11.37A10,10,0,0,0,241.29,341.35Z"/></clipPath><linearGradient id="linear-gradient-20" x1="212.23" y1="338.33" x2="280.53" y2="406.64" gradientTransform="matrix(1, 0, 0, 1, 0, 0)" xlink:href="#linear-gradient"/><clipPath id="clip-path-22"><path class="cls-1" d="M161.66,484.74,142,496.11a10,10,0,0,0-5,8.65V527.5a10,10,0,0,0,5,8.66l19.69,11.36a10,10,0,0,0,10,0l19.69-11.36a10,10,0,0,0,5-8.66V504.76a10,10,0,0,0-5-8.65l-19.69-11.37A10,10,0,0,0,161.66,484.74Z"/></clipPath><linearGradient id="linear-gradient-21" x1="132.6" y1="481.72" x2="200.9" y2="550.03" gradientTransform="matrix(1, 0, 0, 1, 0, 0)" xlink:href="#linear-gradient"/></defs><g class="cls-2"><g class="cls-3"><rect class="cls-4" x="-1197.34" y="-94.21" width="1879.59" height="596.93"/></g></g><g class="cls-5"><rect class="cls-6" x="448.91" y="510.41" width="63.7" height="72.91"/></g><rect class="cls-7" x="478.39" y="538.45" width="33.31" height="0.75" transform="translate(-203.09 319.71) rotate(-30)"/><rect class="cls-7" x="449.57" y="538.31" width="33.78" height="0.77" transform="translate(601.07 1238.46) rotate(-150)"/><rect class="cls-7" x="480.29" y="547.13" width="0.92" height="33.19"/><g class="cls-8"><rect class="cls-9" x="251.19" y="463.05" width="63.7" height="72.91"/></g><rect class="cls-7" x="280.68" y="491.09" width="33.31" height="0.75" transform="translate(-205.9 214.51) rotate(-30)"/><rect class="cls-7" x="251.85" y="490.95" width="33.78" height="0.77" transform="translate(255.81 1051.22) rotate(-150)"/><rect class="cls-7" x="282.57" y="499.77" width="0.92" height="33.19"/><g class="cls-10"><rect class="cls-11" x="261.32" y="581.21" width="63.7" height="72.91"/></g><rect class="cls-7" x="290.81" y="609.25" width="33.31" height="0.75" transform="translate(-263.62 235.4) rotate(-30)"/><rect class="cls-7" x="261.98" y="609.11" width="33.78" height="0.77" transform="translate(215.64 1276.76) rotate(-150)"/><rect class="cls-7" x="292.71" y="617.92" width="0.92" height="33.19"/><g class="cls-12"><rect class="cls-13" x="401.18" y="625.86" width="63.7" height="72.91"/></g><rect class="cls-7" x="430.66" y="653.9" width="33.31" height="0.75" transform="translate(-267.21 311.31) rotate(-30)"/><rect class="cls-7" x="401.84" y="653.76" width="33.78" height="0.77" transform="translate(454.28 1430.02) rotate(-150)"/><rect class="cls-7" x="432.56" y="662.58" width="0.92" height="33.19"/><g class="cls-14"><rect class="cls-15" x="164.21" y="663" width="63.7" height="72.91"/></g><rect class="cls-7" x="193.69" y="691.04" width="33.31" height="0.75" transform="translate(-317.53 197.81) rotate(-30)"/><rect class="cls-7" x="164.87" y="690.9" width="33.78" height="0.77" transform="translate(-6.48 1380.84) rotate(-150)"/><rect class="cls-7" x="195.59" y="699.72" width="0.92" height="33.19"/><g class="cls-16"><rect class="cls-17" x="303.9" y="743.19" width="63.7" height="72.91"/></g><rect class="cls-7" x="333.38" y="771.23" width="33.31" height="0.75" transform="translate(-338.91 278.39) rotate(-30)"/><rect class="cls-7" x="304.56" y="771.09" width="33.78" height="0.77" transform="translate(214.09 1600.31) rotate(-150)"/><rect class="cls-7" x="335.28" y="779.91" width="0.92" height="33.19"/><g class="cls-18"><rect class="cls-19" x="188.75" y="12.06" width="63.7" height="72.91"/></g><rect class="cls-7" x="218.23" y="40.1" width="33.31" height="0.75" transform="translate(11.23 122.86) rotate(-30)"/><rect class="cls-7" x="189.4" y="39.96" width="33.78" height="0.77" transform="translate(364.77 178.43) rotate(-150)"/><rect class="cls-7" x="220.13" y="48.78" width="0.92" height="33.19"/><g class="cls-20"><rect class="cls-21" x="93.44" y="752.32" width="63.7" height="72.91"/></g><rect class="cls-7" x="122.92" y="780.36" width="33.31" height="0.75" transform="translate(-371.67 174.38) rotate(-30)"/><rect class="cls-7" x="94.1" y="780.22" width="33.78" height="0.77" transform="translate(-183.2 1512.11) rotate(-150)"/><rect class="cls-7" x="124.82" y="789.03" width="0.92" height="33.19"/><g class="cls-22"><rect class="cls-23" x="53.9" y="580.97" width="63.7" height="72.91"/></g><rect class="cls-7" x="83.39" y="609.01" width="33.31" height="0.75" transform="translate(-291.29 131.66) rotate(-30)"/><rect class="cls-7" x="54.56" y="608.87" width="33.78" height="0.77" transform="translate(-171.3 1172.62) rotate(-150)"/><rect class="cls-7" x="85.29" y="617.69" width="0.92" height="33.19"/><g class="cls-24"><rect class="cls-25" x="471.93" y="801.64" width="63.7" height="72.91"/></g><rect class="cls-7" x="501.41" y="829.68" width="33.31" height="0.75" transform="translate(-345.62 370.24) rotate(-30)"/><rect class="cls-7" x="472.59" y="829.54" width="33.78" height="0.77" transform="translate(498.41 1793.4) rotate(-150)"/><rect class="cls-7" x="503.31" y="838.36" width="0.92" height="33.19"/><line class="cls-26" x1="206.29" y1="55.92" x2="201.79" y2="59.88"/><line class="cls-27" x1="193.17" y1="67.46" x2="145.78" y2="109.13"/><line class="cls-26" x1="141.48" y1="112.92" x2="136.97" y2="116.89"/><g class="cls-28"><rect class="cls-29" x="91.21" y="95.28" width="63.7" height="72.91"/></g><rect class="cls-7" x="120.69" y="123.32" width="33.31" height="0.75" transform="translate(-43.45 85.24) rotate(-30)"/><rect class="cls-7" x="91.87" y="123.18" width="33.78" height="0.77" transform="translate(141.15 284.96) rotate(-150)"/><rect class="cls-7" x="122.59" y="132" width="0.92" height="33.19"/><line class="cls-30" x1="137.34" y1="143.17" x2="206.29" y2="229.31"/><line class="cls-31" x1="231.53" y1="57.9" x2="336.2" y2="103.48"/><line class="cls-31" x1="293.62" y1="507.83" x2="466.46" y2="549.33"/><line class="cls-31" x1="495.05" y1="557.27" x2="450.2" y2="638.27"/><line class="cls-31" x1="447.31" y1="668.25" x2="518.61" y2="813.1"/><line class="cls-31" x1="349.99" y1="789.03" x2="495.59" y2="822.23"/><line class="cls-31" x1="139.57" y1="796.5" x2="489.48" y2="846.6"/><line class="cls-31" x1="181.76" y1="707.88" x2="141.99" y2="764.46"/><line class="cls-31" x1="210.35" y1="710.85" x2="317.21" y2="756.28"/><line class="cls-31" x1="277.87" y1="624.65" x2="214.27" y2="676.01"/><line class="cls-31" x1="307.46" y1="626.63" x2="408.24" y2="642.56"/><line class="cls-31" x1="100.04" y1="622.67" x2="108.34" y2="764.48"/><line class="cls-31" x1="181.76" y1="491.47" x2="268.74" y2="473.7"/><line class="cls-31" x1="104.4" y1="329.98" x2="72.6" y2="590.96"/><line class="cls-30" x1="108.75" y1="143.17" x2="108.38" y2="306.6"/><g class="cls-32"><rect class="cls-33" x="90.83" y="286.14" width="63.7" height="72.91"/></g><rect class="cls-7" x="120.32" y="314.18" width="33.31" height="0.75" transform="translate(-138.92 110.63) rotate(-30)"/><rect class="cls-7" x="91.49" y="314.04" width="33.78" height="0.77" transform="translate(45.03 640.91) rotate(-150)"/><rect class="cls-7" x="122.22" y="322.85" width="0.92" height="33.19"/><line class="cls-31" x1="136.97" y1="325.86" x2="234.88" y2="351.88"/><g class="cls-34"><rect class="cls-35" x="311.63" y="80.17" width="63.7" height="72.91"/></g><rect class="cls-7" x="341.12" y="108.21" width="33.31" height="0.75" transform="translate(-6.36 193.43) rotate(-30)"/><rect class="cls-7" x="312.29" y="108.07" width="33.78" height="0.77" transform="translate(560.03 366.97) rotate(-150)"/><rect class="cls-7" x="343.01" y="116.89" width="0.92" height="33.19"/><line class="cls-31" x1="357.77" y1="123.7" x2="480.29" y2="143.17"/><line class="cls-31" x1="329.18" y1="123.7" x2="226.56" y2="228.32"/><g class="cls-36"><rect class="cls-37" x="449.46" y="117.06" width="63.7" height="72.91"/></g><rect class="cls-7" x="478.94" y="145.1" width="33.31" height="0.75" transform="translate(-6.34 267.29) rotate(-30)"/><rect class="cls-7" x="450.11" y="144.96" width="33.78" height="0.77" transform="translate(798.77 504.71) rotate(-150)"/><rect class="cls-7" x="480.84" y="153.77" width="0.92" height="33.19"/><line class="cls-31" x1="466.46" y1="160.94" x2="378.58" y2="222.79"/><line class="cls-31" x1="495.59" y1="165.19" x2="547.2" y2="314.42"/><g class="cls-38"><rect class="cls-39" x="185.39" y="207.98" width="63.7" height="72.91"/></g><rect class="cls-7" x="214.88" y="236.02" width="33.31" height="0.75" transform="translate(-87.18 147.44) rotate(-30)"/><rect class="cls-7" x="186.05" y="235.88" width="33.78" height="0.77" transform="translate(260.56 542.35) rotate(-150)"/><rect class="cls-7" x="216.77" y="244.7" width="0.92" height="33.19"/><line class="cls-31" x1="202.94" y1="253.98" x2="131.44" y2="302.63"/><g class="cls-40"><rect class="cls-41" x="332.44" y="208.21" width="63.7" height="72.91"/></g><rect class="cls-7" x="361.92" y="236.25" width="33.31" height="0.75" transform="translate(-67.59 220.99) rotate(-30)"/><rect class="cls-7" x="333.1" y="236.11" width="33.78" height="0.77" transform="translate(534.84 616.3) rotate(-150)"/><rect class="cls-7" x="363.82" y="244.93" width="0.92" height="33.19"/><line class="cls-31" x1="350.04" y1="253.98" x2="227.45" y2="253.98"/><line class="cls-31" x1="378.58" y1="250.52" x2="532.45" y2="322.85"/><g class="cls-42"><rect class="cls-43" x="501.07" y="297.45" width="63.7" height="72.91"/></g><rect class="cls-7" x="530.55" y="325.48" width="33.31" height="0.75" transform="translate(-89.62 317.26) rotate(-30)"/><rect class="cls-7" x="501.73" y="325.35" width="33.78" height="0.77" transform="translate(804.88 867.13) rotate(-150)"/><rect class="cls-7" x="532.45" y="334.16" width="0.92" height="33.19"/><line class="cls-31" x1="521.4" y1="339.45" x2="407.89" y2="364.31"/><line class="cls-31" x1="547.2" y1="345.24" x2="498.27" y2="523.02"/><g class="cls-44"><rect class="cls-45" x="361.75" y="345.16" width="63.7" height="72.91"/></g><rect class="cls-7" x="391.23" y="373.2" width="33.31" height="0.75" transform="translate(-132.14 253.99) rotate(-30)"/><rect class="cls-7" x="362.41" y="373.06" width="33.78" height="0.77" transform="translate(521.06 886.51) rotate(-150)"/><rect class="cls-7" x="393.13" y="381.88" width="0.92" height="33.19"/><line class="cls-31" x1="407.89" y1="398.48" x2="464.64" y2="522.11"/><line class="cls-31" x1="374.2" y1="389.34" x2="299.79" y2="475.22"/><g class="cls-46"><rect class="cls-47" x="214.53" y="336.03" width="63.7" height="72.91"/></g><rect class="cls-7" x="244.02" y="364.07" width="33.31" height="0.75" transform="translate(-147.3 179.16) rotate(-30)"/><rect class="cls-7" x="215.19" y="363.93" width="33.78" height="0.77" transform="translate(250.91 795.86) rotate(-150)"/><rect class="cls-7" x="245.91" y="372.75" width="0.92" height="33.19"/><line class="cls-31" x1="260.67" y1="381.88" x2="364.86" y2="364.67"/><line class="cls-31" x1="231.53" y1="382.11" x2="152.45" y2="500"/><g class="cls-48"><rect class="cls-49" x="134.9" y="479.42" width="63.7" height="72.91"/></g><rect class="cls-7" x="164.38" y="507.46" width="33.31" height="0.75" transform="translate(-229.66 158.55) rotate(-30)"/><rect class="cls-7" x="135.56" y="507.32" width="33.78" height="0.77" transform="translate(30.62 1023.61) rotate(-150)"/><rect class="cls-7" x="166.28" y="516.13" width="0.92" height="33.19"/><line class="cls-31" x1="177.02" y1="528.58" x2="276.91" y2="592.98"/><line class="cls-31" x1="104.4" y1="594.41" x2="152.45" y2="528.58"/></svg>