<svg width="500" height="747" id="Layer_1" data-name="Layer 1" xmlns="http://www.w3.org/2000/svg" xmlns:xlink="http://www.w3.org/1999/xlink" viewBox="0 0 624.6 1282.71"><defs><style>.cls-1{fill:none;}.cls-2{clip-path:url(#clip-path);}.cls-3{fill:url(#linear-gradient);}.cls-4{fill:#fff;}.cls-5{clip-path:url(#clip-path-2);}.cls-6{fill:url(#linear-gradient-2);}.cls-7{clip-path:url(#clip-path-3);}.cls-8{fill:url(#linear-gradient-3);}.cls-9{clip-path:url(#clip-path-4);}.cls-10{fill:url(#linear-gradient-4);}.cls-11{clip-path:url(#clip-path-5);}.cls-12{fill:url(#linear-gradient-5);}.cls-13{clip-path:url(#clip-path-6);}.cls-14{fill:url(#linear-gradient-6);}.cls-15{clip-path:url(#clip-path-7);}.cls-16{fill:url(#linear-gradient-7);}.cls-17{clip-path:url(#clip-path-8);}.cls-18{fill:url(#linear-gradient-8);}.cls-19{clip-path:url(#clip-path-9);}.cls-20{fill:url(#linear-gradient-9);}.cls-21{clip-path:url(#clip-path-10);}.cls-22{fill:url(#linear-gradient-10);}.cls-23{clip-path:url(#clip-path-11);}.cls-24{fill:url(#linear-gradient-11);}.cls-25{clip-path:url(#clip-path-12);}.cls-26{fill:url(#linear-gradient-12);}.cls-27{clip-path:url(#clip-path-13);}.cls-28{fill:url(#linear-gradient-13);}.cls-29{clip-path:url(#clip-path-14);}.cls-30{fill:url(#linear-gradient-14);}.cls-31{clip-path:url(#clip-path-15);}.cls-32{fill:url(#linear-gradient-15);}.cls-33{clip-path:url(#clip-path-16);}.cls-34{fill:url(#linear-gradient-16);}.cls-35{clip-path:url(#clip-path-17);}.cls-36{fill:url(#linear-gradient-17);}.cls-37{clip-path:url(#clip-path-18);}.cls-38{fill:url(#linear-gradient-18);}.cls-39{clip-path:url(#clip-path-19);}.cls-40{fill:url(#linear-gradient-19);}.cls-41{clip-path:url(#clip-path-20);}.cls-42{fill:url(#linear-gradient-20);}.cls-43{clip-path:url(#clip-path-21);}.cls-44{fill:url(#linear-gradient-21);}.cls-45{clip-path:url(#clip-path-22);}.cls-46{fill:url(#linear-gradient-22);}.cls-47{clip-path:url(#clip-path-23);}.cls-48{fill:url(#linear-gradient-23);}.cls-49{clip-path:url(#clip-path-24);}.cls-50{fill:url(#linear-gradient-24);}.cls-51{clip-path:url(#clip-path-25);}.cls-52{fill:url(#linear-gradient-25);}.cls-53{clip-path:url(#clip-path-26);}.cls-54{fill:url(#linear-gradient-26);}.cls-55{clip-path:url(#clip-path-27);}.cls-56{fill:url(#linear-gradient-27);}.cls-57{clip-path:url(#clip-path-28);}.cls-58{fill:url(#linear-gradient-28);}</style><clipPath id="clip-path"><path class="cls-1" d="M59,11.69,22.28,32.88a10,10,0,0,0-5,8.65V83.91a10,10,0,0,0,5,8.66L59,113.76a10,10,0,0,0,10,0l36.7-21.19a10,10,0,0,0,5-8.66V41.53a10,10,0,0,0-5-8.65L69,11.69A10,10,0,0,0,59,11.69Z"/></clipPath><linearGradient id="linear-gradient" x1="10.41" y1="8.59" x2="117.86" y2="116.04" gradientUnits="userSpaceOnUse"><stop offset="0" stop-color="#161412" stop-opacity="0"/><stop offset="0" stop-color="#ff0bac"/><stop offset="0.65" stop-color="#7410cc"/><stop offset="1" stop-color="#2f12dc"/></linearGradient><clipPath id="clip-path-2"><path class="cls-1" d="M58,158.28,21.27,179.47a10,10,0,0,0-5,8.66v42.38a10,10,0,0,0,5,8.65L58,260.35a10,10,0,0,0,10,0l36.7-21.19a10,10,0,0,0,5-8.65V188.13a10,10,0,0,0-5-8.66L68,158.28A10,10,0,0,0,58,158.28Z"/></clipPath><linearGradient id="linear-gradient-2" x1="9.4" y1="155.18" x2="116.85" y2="262.63" xlink:href="#linear-gradient"/><clipPath id="clip-path-3"><path class="cls-1" d="M59.4,304.22,22.7,325.41a10,10,0,0,0-5,8.66v42.38a10,10,0,0,0,5,8.65l36.7,21.19a10,10,0,0,0,10,0L106.1,385.1a10,10,0,0,0,5-8.65V334.07a10,10,0,0,0-5-8.66L69.39,304.22A10,10,0,0,0,59.4,304.22Z"/></clipPath><linearGradient id="linear-gradient-3" x1="10.82" y1="301.12" x2="118.27" y2="408.57" xlink:href="#linear-gradient"/><clipPath id="clip-path-4"><path class="cls-1" d="M59.08,438.83,22.38,460a10,10,0,0,0-5,8.65v42.38a10,10,0,0,0,5,8.65l36.7,21.2a10,10,0,0,0,10,0l36.71-21.2a10,10,0,0,0,5-8.65V468.67a10,10,0,0,0-5-8.65L69.07,438.83A10,10,0,0,0,59.08,438.83Z"/></clipPath><linearGradient id="linear-gradient-4" x1="10.5" y1="435.73" x2="117.95" y2="543.18" xlink:href="#linear-gradient"/><clipPath id="clip-path-5"><path class="cls-1" d="M59.07,585.42l-36.7,21.19a10,10,0,0,0-5,8.66v42.38a10,10,0,0,0,5,8.65l36.7,21.19a10,10,0,0,0,10,0l36.71-21.19a10,10,0,0,0,5-8.65V615.27a10,10,0,0,0-5-8.66L69.06,585.42A10,10,0,0,0,59.07,585.42Z"/></clipPath><linearGradient id="linear-gradient-5" x1="10.49" y1="582.32" x2="117.94" y2="689.77" xlink:href="#linear-gradient"/><clipPath id="clip-path-6"><path class="cls-1" d="M58.49,725,21.78,746.21a10,10,0,0,0-5,8.65v42.38a10,10,0,0,0,5,8.66l36.71,21.19a10,10,0,0,0,10,0l36.7-21.19a10,10,0,0,0,5-8.66V754.86a10,10,0,0,0-5-8.65L68.48,725A10,10,0,0,0,58.49,725Z"/></clipPath><linearGradient id="linear-gradient-6" x1="9.9" y1="721.92" x2="117.35" y2="829.37" xlink:href="#linear-gradient"/><clipPath id="clip-path-7"><path class="cls-1" d="M57.4,859.23,20.7,880.42a10,10,0,0,0-5,8.65v42.38a10,10,0,0,0,5,8.66L57.4,961.3a10,10,0,0,0,10,0l36.71-21.19a10,10,0,0,0,5-8.66V889.07a10,10,0,0,0-5-8.65L67.39,859.23A10,10,0,0,0,57.4,859.23Z"/></clipPath><linearGradient id="linear-gradient-7" x1="8.82" y1="856.13" x2="116.27" y2="963.58" xlink:href="#linear-gradient"/><clipPath id="clip-path-8"><path class="cls-1" d="M217.14,267.15l-36.7,21.19a10,10,0,0,0-5,8.66v42.38a10,10,0,0,0,5,8.65l36.7,21.19a10,10,0,0,0,10,0L263.83,348a10,10,0,0,0,5-8.65V297a10,10,0,0,0-5-8.66l-36.7-21.19A10,10,0,0,0,217.14,267.15Z"/></clipPath><linearGradient id="linear-gradient-8" x1="168.56" y1="264.05" x2="276.01" y2="371.5" xlink:href="#linear-gradient"/><clipPath id="clip-path-9"><path class="cls-1" d="M218.56,413.09l-36.7,21.19a10,10,0,0,0-5,8.66v42.38a10,10,0,0,0,5,8.65l36.7,21.19a10,10,0,0,0,10,0L265.26,494a10,10,0,0,0,5-8.65V442.94a10,10,0,0,0-5-8.66l-36.7-21.19A10,10,0,0,0,218.56,413.09Z"/></clipPath><linearGradient id="linear-gradient-9" x1="169.98" y1="409.99" x2="277.43" y2="517.44" xlink:href="#linear-gradient"/><clipPath id="clip-path-10"><path class="cls-1" d="M218.24,547.7l-36.7,21.19a10,10,0,0,0-5,8.65v42.38a10,10,0,0,0,5,8.65l36.7,21.19a10,10,0,0,0,10,0l36.71-21.19a10,10,0,0,0,5-8.65V577.54a10,10,0,0,0-5-8.65L228.23,547.7A10,10,0,0,0,218.24,547.7Z"/></clipPath><linearGradient id="linear-gradient-10" x1="169.66" y1="544.6" x2="277.11" y2="652.05" xlink:href="#linear-gradient"/><clipPath id="clip-path-11"><path class="cls-1" d="M218.23,694.29l-36.7,21.19a10,10,0,0,0-5,8.66v42.38a10,10,0,0,0,5,8.65l36.7,21.19a10,10,0,0,0,10,0l36.71-21.19a10,10,0,0,0,5-8.65V724.14a10,10,0,0,0-5-8.66l-36.71-21.19A10,10,0,0,0,218.23,694.29Z"/></clipPath><linearGradient id="linear-gradient-11" x1="169.65" y1="691.19" x2="277.1" y2="798.64" xlink:href="#linear-gradient"/><clipPath id="clip-path-12"><path class="cls-1" d="M217.65,833.89l-36.71,21.19a10,10,0,0,0-5,8.65v42.38a10,10,0,0,0,5,8.66L217.65,936a10,10,0,0,0,10,0l36.7-21.19a10,10,0,0,0,5-8.66V863.73a10,10,0,0,0-5-8.65l-36.7-21.19A10,10,0,0,0,217.65,833.89Z"/></clipPath><linearGradient id="linear-gradient-12" x1="169.06" y1="830.79" x2="276.52" y2="938.24" xlink:href="#linear-gradient"/><clipPath id="clip-path-13"><path class="cls-1" d="M216.56,968.1l-36.7,21.19a10,10,0,0,0-5,8.65v42.38a10,10,0,0,0,5,8.65l36.7,21.2a10,10,0,0,0,10,0l36.7-21.2a10,10,0,0,0,5-8.65V997.94a10,10,0,0,0-5-8.65l-36.7-21.19A10,10,0,0,0,216.56,968.1Z"/></clipPath><linearGradient id="linear-gradient-13" x1="167.98" y1="965" x2="275.43" y2="1072.45" xlink:href="#linear-gradient"/><clipPath id="clip-path-14"><path class="cls-1" d="M395.56,371.89l-36.7,21.19a10,10,0,0,0-5,8.65v42.38a10,10,0,0,0,5,8.66L395.56,474a10,10,0,0,0,10,0l36.7-21.19a10,10,0,0,0,5-8.66V401.73a10,10,0,0,0-5-8.65l-36.7-21.19A10,10,0,0,0,395.56,371.89Z"/></clipPath><linearGradient id="linear-gradient-14" x1="346.98" y1="368.79" x2="454.43" y2="476.24" xlink:href="#linear-gradient"/><clipPath id="clip-path-15"><path class="cls-1" d="M397,517.83,360.29,539a10,10,0,0,0-5,8.65v42.38a10,10,0,0,0,5,8.65L397,619.89a10,10,0,0,0,10,0l36.7-21.19a10,10,0,0,0,5-8.65V547.67a10,10,0,0,0-5-8.65L407,517.83A10,10,0,0,0,397,517.83Z"/></clipPath><linearGradient id="linear-gradient-15" x1="348.41" y1="514.73" x2="455.86" y2="622.18" xlink:href="#linear-gradient"/><clipPath id="clip-path-16"><path class="cls-1" d="M396.67,652.43,360,673.62a10,10,0,0,0-5,8.65v42.38a10,10,0,0,0,5,8.66l36.71,21.19a10,10,0,0,0,10,0l36.7-21.19a10,10,0,0,0,5-8.66V682.27a10,10,0,0,0-5-8.65l-36.7-21.19A10,10,0,0,0,396.67,652.43Z"/></clipPath><linearGradient id="linear-gradient-16" x1="348.09" y1="649.33" x2="455.54" y2="756.78" xlink:href="#linear-gradient"/><clipPath id="clip-path-17"><path class="cls-1" d="M396.66,799,360,820.22a10,10,0,0,0-5,8.65v42.38a10,10,0,0,0,5,8.65l36.71,21.2a10,10,0,0,0,10,0l36.7-21.2a10,10,0,0,0,5-8.65V828.87a10,10,0,0,0-5-8.65L406.65,799A10,10,0,0,0,396.66,799Z"/></clipPath><linearGradient id="linear-gradient-17" x1="348.08" y1="795.93" x2="455.53" y2="903.38" xlink:href="#linear-gradient"/><clipPath id="clip-path-18"><path class="cls-1" d="M396.07,938.62l-36.7,21.19a10,10,0,0,0-5,8.66v42.38a10,10,0,0,0,5,8.65l36.7,21.19a10,10,0,0,0,10,0l36.71-21.19a10,10,0,0,0,5-8.65V968.47a10,10,0,0,0-5-8.66l-36.71-21.19A10,10,0,0,0,396.07,938.62Z"/></clipPath><linearGradient id="linear-gradient-18" x1="347.49" y1="935.52" x2="454.94" y2="1042.97" xlink:href="#linear-gradient"/><clipPath id="clip-path-19"><path class="cls-1" d="M395,1072.83,358.29,1094a10,10,0,0,0-5,8.65v42.39a10,10,0,0,0,5,8.65L395,1174.9a10,10,0,0,0,10,0l36.7-21.19a10,10,0,0,0,5-8.65v-42.39a10,10,0,0,0-5-8.65L405,1072.83A10,10,0,0,0,395,1072.83Z"/></clipPath><linearGradient id="linear-gradient-19" x1="346.41" y1="1069.73" x2="453.86" y2="1177.18" xlink:href="#linear-gradient"/><clipPath id="clip-path-20"><path class="cls-1" d="M555.68,319.77,519,341a10,10,0,0,0-5,8.65V392a10,10,0,0,0,5,8.66l36.7,21.19a10,10,0,0,0,10,0l36.7-21.19a10,10,0,0,0,5-8.66V349.61a10,10,0,0,0-5-8.65l-36.7-21.19A10,10,0,0,0,555.68,319.77Z"/></clipPath><linearGradient id="linear-gradient-20" x1="507.1" y1="316.67" x2="614.55" y2="424.12" xlink:href="#linear-gradient"/><clipPath id="clip-path-21"><path class="cls-1" d="M554.67,466.37,518,487.56a10,10,0,0,0-5,8.65v42.38a10,10,0,0,0,5,8.65l36.7,21.2a10,10,0,0,0,10,0l36.71-21.2a10,10,0,0,0,5-8.65V496.21a10,10,0,0,0-5-8.65l-36.71-21.19A10,10,0,0,0,554.67,466.37Z"/></clipPath><linearGradient id="linear-gradient-21" x1="506.09" y1="463.27" x2="613.54" y2="570.72" xlink:href="#linear-gradient"/><clipPath id="clip-path-22"><path class="cls-1" d="M556.1,612.3l-36.71,21.19a10,10,0,0,0-5,8.66v42.38a10,10,0,0,0,5,8.65l36.71,21.19a10,10,0,0,0,10,0l36.7-21.19a10,10,0,0,0,5-8.65V642.15a10,10,0,0,0-5-8.66l-36.7-21.19A10,10,0,0,0,556.1,612.3Z"/></clipPath><linearGradient id="linear-gradient-22" x1="507.52" y1="609.2" x2="614.97" y2="716.65" xlink:href="#linear-gradient"/><clipPath id="clip-path-23"><path class="cls-1" d="M555.78,746.91,519.07,768.1a10,10,0,0,0-5,8.65v42.38a10,10,0,0,0,5,8.66L555.78,849a10,10,0,0,0,10,0l36.7-21.19a10,10,0,0,0,5-8.66V776.75a10,10,0,0,0-5-8.65l-36.7-21.19A10,10,0,0,0,555.78,746.91Z"/></clipPath><linearGradient id="linear-gradient-23" x1="507.19" y1="743.81" x2="614.65" y2="851.26" xlink:href="#linear-gradient"/><clipPath id="clip-path-24"><path class="cls-1" d="M555.77,893.5l-36.71,21.2a10,10,0,0,0-5,8.65v42.38a10,10,0,0,0,5,8.65l36.71,21.19a10,10,0,0,0,10,0l36.7-21.19a10,10,0,0,0,5-8.65V923.35a10,10,0,0,0-5-8.65l-36.7-21.2A10,10,0,0,0,555.77,893.5Z"/></clipPath><linearGradient id="linear-gradient-24" x1="507.18" y1="890.4" x2="614.64" y2="997.86" xlink:href="#linear-gradient"/><clipPath id="clip-path-25"><path class="cls-1" d="M555.18,1033.1l-36.7,21.19a10,10,0,0,0-5,8.65v42.38a10,10,0,0,0,5,8.66l36.7,21.19a10,10,0,0,0,10,0L601.88,1114a10,10,0,0,0,5-8.66v-42.38a10,10,0,0,0-5-8.65l-36.71-21.19A10,10,0,0,0,555.18,1033.1Z"/></clipPath><linearGradient id="linear-gradient-25" x1="506.6" y1="1030" x2="614.05" y2="1137.45" xlink:href="#linear-gradient"/><clipPath id="clip-path-26"><path class="cls-1" d="M554.1,1167.31l-36.71,21.19a10,10,0,0,0-5,8.65v42.38a10,10,0,0,0,5,8.66l36.71,21.19a10,10,0,0,0,10,0l36.7-21.19a10,10,0,0,0,5-8.66v-42.38a10,10,0,0,0-5-8.65l-36.7-21.19A10,10,0,0,0,554.1,1167.31Z"/></clipPath><linearGradient id="linear-gradient-26" x1="505.52" y1="1164.21" x2="612.97" y2="1271.66" xlink:href="#linear-gradient"/><clipPath id="clip-path-27"><path class="cls-1" d="M218.15,120.56l-36.7,21.19a10,10,0,0,0-5,8.65v42.38a10,10,0,0,0,5,8.66l36.7,21.19a10,10,0,0,0,10,0l36.71-21.19a10,10,0,0,0,5-8.66V150.4a10,10,0,0,0-5-8.65l-36.71-21.19A10,10,0,0,0,218.15,120.56Z"/></clipPath><linearGradient id="linear-gradient-27" x1="169.57" y1="117.46" x2="277.02" y2="224.91" xlink:href="#linear-gradient"/><clipPath id="clip-path-28"><path class="cls-1" d="M396.57,225.29l-36.7,21.19a10,10,0,0,0-5,8.65v42.39a10,10,0,0,0,5,8.65l36.7,21.19a10,10,0,0,0,10,0l36.7-21.19a10,10,0,0,0,5-8.65V255.13a10,10,0,0,0-5-8.65l-36.7-21.19A10,10,0,0,0,396.57,225.29Z"/></clipPath><linearGradient id="linear-gradient-28" x1="347.99" y1="222.19" x2="455.44" y2="329.64" xlink:href="#linear-gradient"/></defs><g class="cls-2"><rect class="cls-3" x="14.03" y="4.96" width="100.2" height="114.7"/></g><rect class="cls-4" x="60.41" y="49.07" width="52.39" height="1.17" transform="translate(-13.23 49.96) rotate(-30)"/><rect class="cls-4" x="15.07" y="48.85" width="53.13" height="1.21" transform="translate(52.96 113.11) rotate(-150)"/><rect class="cls-4" x="63.4" y="62.72" width="1.44" height="52.21"/><g class="cls-5"><rect class="cls-6" x="13.02" y="151.56" width="100.2" height="114.7"/></g><rect class="cls-4" x="59.4" y="195.67" width="52.39" height="1.17" transform="matrix(0.87, -0.5, 0.5, 0.87, -86.66, 69.09)"/><rect class="cls-4" x="14.06" y="195.45" width="53.13" height="1.21" transform="translate(-22.22 386.15) rotate(-150)"/><rect class="cls-4" x="62.39" y="209.32" width="1.44" height="52.21"/><g class="cls-7"><rect class="cls-8" x="14.45" y="297.5" width="100.2" height="114.7"/></g><rect class="cls-4" x="60.83" y="341.61" width="52.39" height="1.17" transform="matrix(0.87, -0.5, 0.5, 0.87, -159.44, 89.36)"/><rect class="cls-4" x="15.48" y="341.39" width="53.13" height="1.21" transform="translate(-92.53 659.19) rotate(-150)"/><rect class="cls-4" x="63.81" y="355.26" width="1.44" height="52.21"/><g class="cls-9"><rect class="cls-10" x="14.12" y="432.1" width="100.2" height="114.7"/></g><rect class="cls-4" x="60.51" y="476.21" width="52.39" height="1.17" transform="translate(-226.78 107.23) rotate(-30)"/><rect class="cls-4" x="15.16" y="475.99" width="53.13" height="1.21" transform="translate(-160.43 910.2) rotate(-150)"/><rect class="cls-4" x="63.49" y="489.86" width="1.44" height="52.21"/><g class="cls-11"><rect class="cls-12" x="14.11" y="578.7" width="100.2" height="114.7"/></g><rect class="cls-4" x="60.5" y="622.81" width="52.39" height="1.17" transform="matrix(0.87, -0.5, 0.5, 0.87, -300.08, 126.87)"/><rect class="cls-4" x="15.15" y="622.59" width="53.13" height="1.21" transform="translate(-233.75 1183.75) rotate(-150)"/><rect class="cls-4" x="63.48" y="636.46" width="1.44" height="52.21"/><g class="cls-13"><rect class="cls-14" x="13.53" y="718.29" width="100.2" height="114.7"/></g><rect class="cls-4" x="59.91" y="762.4" width="52.39" height="1.17" transform="matrix(0.87, -0.5, 0.5, 0.87, -369.96, 145.27)"/><rect class="cls-4" x="14.57" y="762.18" width="53.13" height="1.21" transform="translate(-304.64 1443.95) rotate(-150)"/><rect class="cls-4" x="62.9" y="776.05" width="1.44" height="52.21"/><g class="cls-15"><rect class="cls-16" x="12.45" y="852.5" width="100.2" height="114.7"/></g><rect class="cls-4" x="58.83" y="896.61" width="52.39" height="1.17" transform="matrix(0.87, -0.5, 0.5, 0.87, -437.21, 162.71)"/><rect class="cls-4" x="13.48" y="896.39" width="53.13" height="1.21" transform="translate(-373.77 1693.84) rotate(-150)"/><rect class="cls-4" x="61.81" y="910.26" width="1.44" height="52.21"/><g class="cls-17"><rect class="cls-18" x="172.18" y="260.43" width="100.2" height="114.7"/></g><rect class="cls-4" x="218.56" y="304.54" width="52.39" height="1.17" transform="matrix(0.87, -0.5, 0.5, 0.87, -119.77, 163.26)"/><rect class="cls-4" x="173.22" y="304.32" width="53.13" height="1.21" transform="translate(220.34 668.89) rotate(-150)"/><rect class="cls-4" x="221.55" y="318.19" width="1.44" height="52.21"/><g class="cls-19"><rect class="cls-20" x="173.61" y="406.37" width="100.2" height="114.7"/></g><rect class="cls-4" x="219.99" y="450.48" width="52.39" height="1.17" transform="matrix(0.87, -0.5, 0.5, 0.87, -192.55, 183.52)"/><rect class="cls-4" x="174.64" y="450.26" width="53.13" height="1.21" transform="translate(150.03 941.93) rotate(-150)"/><rect class="cls-4" x="222.97" y="464.13" width="1.44" height="52.21"/><g class="cls-21"><rect class="cls-22" x="173.29" y="540.97" width="100.2" height="114.7"/></g><rect class="cls-4" x="219.67" y="585.08" width="52.39" height="1.17" transform="matrix(0.87, -0.5, 0.5, 0.87, -259.89, 201.4)"/><rect class="cls-4" x="174.32" y="584.86" width="53.13" height="1.21" transform="translate(82.13 1192.94) rotate(-150)"/><rect class="cls-4" x="222.65" y="598.73" width="1.44" height="52.21"/><g class="cls-23"><rect class="cls-24" x="173.28" y="687.57" width="100.2" height="114.7"/></g><rect class="cls-4" x="219.66" y="731.68" width="52.39" height="1.17" transform="matrix(0.87, -0.5, 0.5, 0.87, -333.19, 221.03)"/><rect class="cls-4" x="174.31" y="731.46" width="53.13" height="1.21" transform="translate(8.81 1466.49) rotate(-150)"/><rect class="cls-4" x="222.64" y="745.33" width="1.44" height="52.21"/><g class="cls-25"><rect class="cls-26" x="172.69" y="827.16" width="100.2" height="114.7"/></g><rect class="cls-4" x="219.07" y="871.27" width="52.39" height="1.17" transform="matrix(0.87, -0.5, 0.5, 0.87, -403.07, 239.44)"/><rect class="cls-4" x="173.73" y="871.05" width="53.13" height="1.21" transform="translate(-62.08 1726.68) rotate(-150)"/><rect class="cls-4" x="222.06" y="884.92" width="1.44" height="52.21"/><g class="cls-27"><rect class="cls-28" x="171.61" y="961.37" width="100.2" height="114.7"/></g><rect class="cls-4" x="217.99" y="1005.48" width="52.39" height="1.17" transform="matrix(0.87, -0.5, 0.5, 0.87, -470.32, 256.88)"/><rect class="cls-4" x="172.64" y="1005.26" width="53.13" height="1.21" transform="translate(-131.2 1976.58) rotate(-150)"/><rect class="cls-4" x="220.97" y="1019.13" width="1.44" height="52.21"/><g class="cls-29"><rect class="cls-30" x="350.61" y="365.16" width="100.2" height="114.7"/></g><rect class="cls-4" x="396.99" y="409.27" width="52.39" height="1.17" transform="matrix(0.87, -0.5, 0.5, 0.87, -148.23, 266.5)"/><rect class="cls-4" x="351.64" y="409.05" width="53.13" height="1.21" transform="translate(500.92 953.54) rotate(-150)"/><rect class="cls-4" x="399.97" y="422.92" width="1.44" height="52.21"/><g class="cls-31"><rect class="cls-32" x="352.03" y="511.1" width="100.2" height="114.7"/></g><rect class="cls-4" x="398.41" y="555.21" width="52.39" height="1.17" transform="matrix(0.87, -0.5, 0.5, 0.87, -221.01, 286.77)"/><rect class="cls-4" x="353.07" y="554.99" width="53.13" height="1.21" transform="translate(430.61 1226.57) rotate(-150)"/><rect class="cls-4" x="401.4" y="568.86" width="1.44" height="52.21"/><g class="cls-33"><rect class="cls-34" x="351.71" y="645.7" width="100.2" height="114.7"/></g><rect class="cls-4" x="398.09" y="689.81" width="52.39" height="1.17" transform="matrix(0.87, -0.5, 0.5, 0.87, -288.36, 304.64)"/><rect class="cls-4" x="352.75" y="689.59" width="53.13" height="1.21" transform="translate(362.71 1477.59) rotate(-150)"/><rect class="cls-4" x="401.08" y="703.46" width="1.44" height="52.21"/><g class="cls-35"><rect class="cls-36" x="351.7" y="792.3" width="100.2" height="114.7"/></g><rect class="cls-4" x="398.08" y="836.41" width="52.39" height="1.17" transform="matrix(0.87, -0.5, 0.5, 0.87, -361.66, 324.28)"/><rect class="cls-4" x="352.74" y="836.19" width="53.13" height="1.21" transform="translate(289.39 1751.14) rotate(-150)"/><rect class="cls-4" x="401.07" y="850.06" width="1.44" height="52.21"/><g class="cls-37"><rect class="cls-38" x="351.11" y="931.9" width="100.2" height="114.7"/></g><rect class="cls-4" x="397.5" y="976.01" width="52.39" height="1.17" transform="matrix(0.87, -0.5, 0.5, 0.87, -431.53, 342.69)"/><rect class="cls-4" x="352.15" y="975.79" width="53.13" height="1.21" transform="translate(218.5 2011.33) rotate(-150)"/><rect class="cls-4" x="400.48" y="989.66" width="1.44" height="52.21"/><g class="cls-39"><rect class="cls-40" x="350.03" y="1066.11" width="100.2" height="114.7"/></g><rect class="cls-4" x="396.41" y="1110.22" width="52.39" height="1.17" transform="matrix(0.87, -0.5, 0.5, 0.87, -498.78, 360.12)"/><rect class="cls-4" x="351.07" y="1110" width="53.13" height="1.21" transform="translate(149.38 2261.23) rotate(-150)"/><rect class="cls-4" x="399.4" y="1123.86" width="1.44" height="52.21"/><g class="cls-41"><rect class="cls-42" x="510.73" y="313.04" width="100.2" height="114.7"/></g><rect class="cls-4" x="557.11" y="357.15" width="52.39" height="1.17" transform="matrix(0.87, -0.5, 0.5, 0.87, -100.72, 339.58)"/><rect class="cls-4" x="511.76" y="356.93" width="53.13" height="1.21" transform="translate(825.77 936.34) rotate(-150)"/><rect class="cls-4" x="560.09" y="370.8" width="1.44" height="52.21"/><g class="cls-43"><rect class="cls-44" x="509.72" y="459.64" width="100.2" height="114.7"/></g><rect class="cls-4" x="556.1" y="503.75" width="52.39" height="1.17" transform="matrix(0.87, -0.5, 0.5, 0.87, -174.16, 358.72)"/><rect class="cls-4" x="510.75" y="503.53" width="53.13" height="1.21" transform="translate(750.58 1209.39) rotate(-150)"/><rect class="cls-4" x="559.08" y="517.4" width="1.44" height="52.21"/><g class="cls-45"><rect class="cls-46" x="511.14" y="605.58" width="100.2" height="114.7"/></g><rect class="cls-4" x="557.52" y="649.69" width="52.39" height="1.17" transform="matrix(0.87, -0.5, 0.5, 0.87, -246.93, 378.98)"/><rect class="cls-4" x="512.18" y="649.47" width="53.13" height="1.21" transform="translate(680.27 1482.43) rotate(-150)"/><rect class="cls-4" x="560.51" y="663.34" width="1.44" height="52.21"/><g class="cls-47"><rect class="cls-48" x="510.82" y="740.18" width="100.2" height="114.7"/></g><rect class="cls-4" x="557.2" y="784.29" width="52.39" height="1.17" transform="matrix(0.87, -0.5, 0.5, 0.87, -314.28, 396.85)"/><rect class="cls-4" x="511.86" y="784.07" width="53.13" height="1.21" transform="translate(612.37 1733.44) rotate(-150)"/><rect class="cls-4" x="560.19" y="797.94" width="1.44" height="52.21"/><g class="cls-49"><rect class="cls-50" x="510.81" y="886.78" width="100.2" height="114.7"/></g><rect class="cls-4" x="557.19" y="930.89" width="52.39" height="1.17" transform="matrix(0.87, -0.5, 0.5, 0.87, -387.58, 416.49)"/><rect class="cls-4" x="511.85" y="930.67" width="53.13" height="1.21" transform="translate(539.05 2006.99) rotate(-150)"/><rect class="cls-4" x="560.18" y="944.54" width="1.44" height="52.21"/><g class="cls-51"><rect class="cls-52" x="510.22" y="1026.37" width="100.2" height="114.7"/></g><rect class="cls-4" x="556.61" y="1070.48" width="52.39" height="1.17" transform="matrix(0.87, -0.5, 0.5, 0.87, -457.45, 434.9)"/><rect class="cls-4" x="511.26" y="1070.26" width="53.13" height="1.21" transform="translate(468.16 2267.18) rotate(-150)"/><rect class="cls-4" x="559.59" y="1084.13" width="1.44" height="52.21"/><g class="cls-53"><rect class="cls-54" x="509.14" y="1160.58" width="100.2" height="114.7"/></g><rect class="cls-4" x="555.52" y="1204.69" width="52.39" height="1.17" transform="matrix(0.87, -0.5, 0.5, 0.87, -524.7, 452.34)"/><rect class="cls-4" x="510.18" y="1204.47" width="53.13" height="1.21" transform="translate(399.04 2517.08) rotate(-150)"/><rect class="cls-4" x="558.51" y="1218.34" width="1.44" height="52.21"/><g class="cls-55"><rect class="cls-56" x="173.19" y="113.83" width="100.2" height="114.7"/></g><rect class="cls-4" x="219.57" y="157.94" width="52.39" height="1.17" transform="translate(-46.34 144.12) rotate(-30)"/><rect class="cls-4" x="174.23" y="157.72" width="53.13" height="1.21" transform="translate(295.53 395.84) rotate(-150)"/><rect class="cls-4" x="222.56" y="171.59" width="1.44" height="52.21"/><g class="cls-57"><rect class="cls-58" x="351.62" y="218.57" width="100.2" height="114.7"/></g><rect class="cls-4" x="398" y="262.68" width="52.39" height="1.17" transform="translate(-74.8 247.37) rotate(-30)"/><rect class="cls-4" x="352.65" y="262.46" width="53.13" height="1.21" transform="translate(576.11 680.49) rotate(-150)"/><rect class="cls-4" x="400.98" y="276.33" width="1.44" height="52.21"/></svg>