<svg id="Layer_1" data-name="Layer 1" xmlns="http://www.w3.org/2000/svg" xmlns:xlink="http://www.w3.org/1999/xlink" viewBox="0 0 500 500"><defs><style>.cls-1,.cls-5{fill:none;}.cls-2{clip-path:url(#clip-path);}.cls-3{clip-path:url(#clip-path-2);}.cls-4{fill:url(#linear-gradient);}.cls-5{stroke:#f6f6f6;stroke-linecap:round;stroke-miterlimit:10;stroke-width:8px;}.cls-6{fill:#f6f6f6;}</style><clipPath id="clip-path"><path class="cls-1" d="M339.5,225.85a89.84,89.84,0,0,1-26.8,75.52A69.38,69.38,0,0,0,291.6,351v10.46H208.4V351a71,71,0,0,0-21.88-50.43,90.12,90.12,0,0,1,63.35-154.08,93.4,93.4,0,0,1,10.71.61,90.34,90.34,0,0,1,78.92,78.72ZM250,430.77a20.84,20.84,0,0,0,19.61-13.86H230.39A20.84,20.84,0,0,0,250,430.77Zm-34.66-34.66a6.93,6.93,0,0,0,6.93,6.93h55.46a6.94,6.94,0,0,0,6.94-6.93v-20.8H215.34ZM250,104.93a13.87,13.87,0,0,0,13.87-13.87V56.4a13.87,13.87,0,1,0-27.74,0V91.06A13.87,13.87,0,0,0,250,104.93ZM133,139.24a14.2,14.2,0,0,0,19.61,0,13.87,13.87,0,0,0,0-19.61L128.08,95.12a13.87,13.87,0,0,0-19.61,19.61Zm-14.7,97.41a13.86,13.86,0,0,0-13.87-13.86H69.74a13.87,13.87,0,0,0,0,27.73h34.67A13.87,13.87,0,0,0,118.28,236.65Zm28.1,93.8a13.87,13.87,0,0,0-13.4,3.61l-24.51,24.51a13.87,13.87,0,0,0,0,19.61,14.2,14.2,0,0,0,19.61,0l24.51-24.51a13.87,13.87,0,0,0-6.21-23.22ZM367,334.06a13.87,13.87,0,1,0-19.61,19.61l24.51,24.51a14.2,14.2,0,0,0,19.61,0,13.87,13.87,0,0,0,0-19.61Zm63.24-111.27H395.59a13.87,13.87,0,1,0,0,27.73h34.67a13.87,13.87,0,0,0,0-27.73ZM367,139.24l24.51-24.51a13.87,13.87,0,1,0-19.61-19.61l-24.51,24.51a13.87,13.87,0,0,0,0,19.61A14.2,14.2,0,0,0,367,139.24Z"/></clipPath><clipPath id="clip-path-2"><rect class="cls-1" x="-2.99" y="26.94" width="505.98" height="425.39" rx="8.32"/></clipPath><linearGradient id="linear-gradient" x1="-228.66" y1="-0.31" x2="1308.06" y2="1536.41" gradientTransform="translate(-262.08 -179.77) scale(1 0.5)" gradientUnits="userSpaceOnUse"><stop offset="0" stop-color="#161412" stop-opacity="0"/><stop offset="0" stop-color="#ff0bac"/><stop offset="0.65" stop-color="#7410cc"/><stop offset="1" stop-color="#2f12dc"/></linearGradient></defs><g class="cls-2"><g class="cls-3"><rect class="cls-4" x="-662.17" y="-94.21" width="1879.59" height="596.93"/></g></g><path class="cls-5" d="M182.76,197.6c1.25-2.12,23-37.65,65.39-38.64a78.23,78.23,0,0,1,69,38.64"/><path class="cls-5" d="M317.23,275.42c-1.25,2.13-23,37.66-65.39,38.65a78.21,78.21,0,0,1-69-38.65"/><path class="cls-6" d="M264.44,232.58a123.2,123.2,0,0,0-12.67-5.74,28.29,28.29,0,0,1-7-3.9c-4.14-3.3-3.34-8.65,1.5-10.77a12.28,12.28,0,0,1,4.26-.88,32.32,32.32,0,0,1,16,3.17c2.53,1.22,3.37.83,4.22-1.8.9-2.78,1.65-5.61,2.49-8.41.55-1.89-.13-3.13-1.91-3.92a40.2,40.2,0,0,0-10.11-3c-4.58-.71-4.58-.73-4.6-5.33,0-6.49,0-6.49-6.53-6.49-.94,0-1.89,0-2.83,0-3,.08-3.55.62-3.64,3.68,0,1.37,0,2.74,0,4.13,0,4.07,0,4-3.94,5.42-9.42,3.43-15.25,9.85-15.87,20.13-.55,9.1,4.2,15.25,11.67,19.72,4.61,2.76,9.7,4.39,14.59,6.55a22,22,0,0,1,5.31,3.13c4.69,3.88,3.83,10.32-1.74,12.76a17.4,17.4,0,0,1-9.36,1.22A41.62,41.62,0,0,1,230.05,258c-2.63-1.37-3.4-1-4.3,1.84-.77,2.47-1.46,4.95-2.14,7.43-.92,3.34-.58,4.14,2.61,5.7a45.27,45.27,0,0,0,12.85,3.68c3.47.56,3.57.71,3.62,4.31,0,1.62,0,3.27,0,4.9,0,2.06,1,3.25,3.13,3.3,2.39,0,4.81,0,7.21,0a2.76,2.76,0,0,0,3-3.11c0-2.23.11-4.47,0-6.7s.88-3.43,3.06-4a24.2,24.2,0,0,0,12.61-8.09C280.91,256,277.42,239.75,264.44,232.58Z"/></svg>