<svg id="Layer_1" data-name="Layer 1" xmlns="http://www.w3.org/2000/svg" xmlns:xlink="http://www.w3.org/1999/xlink" viewBox="0 0 500 500"><defs><style>.cls-1{fill:url(#linear-gradient);}.cls-2{stroke:#fff;stroke-miterlimit:10;stroke-width:10px;fill:url(#linear-gradient-2);}.cls-3{fill:url(#linear-gradient-3);}</style><linearGradient id="linear-gradient" x1="-349.32" y1="55.82" x2="1249.42" y2="1654.56" gradientTransform="translate(-262.08 -171.93) scale(1 0.5)" gradientUnits="userSpaceOnUse"><stop offset="0" stop-color="#161412" stop-opacity="0"/><stop offset="0" stop-color="#ff0bac"/><stop offset="0.65" stop-color="#7410cc"/><stop offset="1" stop-color="#2f12dc"/></linearGradient><linearGradient id="linear-gradient-2" x1="-140.41" y1="144.15" x2="1201.38" y2="1485.94" xlink:href="#linear-gradient"/><linearGradient id="linear-gradient-3" x1="-79.81" y1="71.55" x2="1261.98" y2="1413.34" xlink:href="#linear-gradient"/></defs><path class="cls-1" d="M246.07,309.28a11.84,11.84,0,0,1-5.82-1.39L82.53,217.28V343.94c0,5.88,2.58,11,6.29,12.48,41.49,16.61,93.78,30.69,154.3,31.21,63.61.55,118.37-14,161.28-31.22,3.7-1.48,6.28-6.6,6.28-12.47V216.67L251.9,307.89A11.91,11.91,0,0,1,246.07,309.28Z"/><path class="cls-2" d="M476.68,222.51l-224.25-84a19.3,19.3,0,0,0-11.65,0l-224.26,84c-3.21,1.21-3.21,3.16,0,4.37L83.06,251.8l157.72,59.09a19.3,19.3,0,0,0,11.65,0L411.21,251.4l60.37-22.61V228a3.34,3.34,0,0,1,6.22-1.69C479.84,225.16,479.47,223.56,476.68,222.51Z"/><path class="cls-3" d="M464.92,223.69a3.34,3.34,0,0,0-3.34,3.35V284a5.22,5.22,0,0,0,.27,8.3,4,4,0,0,0-.27,1.46V307.1a3.92,3.92,0,0,0,4.9,3.8l6.46-1.67a3.92,3.92,0,0,0,2.46-5.69l-6.47-11.71a2.2,2.2,0,0,0-.17-.25,5.2,5.2,0,0,0-.49-7.62V227a3.38,3.38,0,0,0-3.35-3.35Z"/></svg>